<svg width="28" height="30" fill="none" xmlns="http://www.w3.org/2000/svg"><path d="M17.82 9.744l-2.278-.331-1.019-2.064a.586.586 0 00-1.05 0l-1.02 2.064-2.278.33a.586.586 0 00-.325 1l1.65 1.607-.39 2.268a.586.586 0 00.85.618l2.038-1.071 2.038 1.071a.586.586 0 00.85-.618l-.39-2.268 1.65-1.607a.586.586 0 00-.325-1zm-2.363 1.982a.586.586 0 00-.168.518l.24 1.402-1.259-.662a.586.586 0 00-.545 0l-1.26.662.24-1.402a.586.586 0 00-.168-.518l-1.019-.993 1.408-.205a.586.586 0 00.441-.32l.63-1.276.63 1.275c.085.173.25.293.441.32l1.408.206-1.019.993z" fill="#118BDD"/><path d="M.643 25.017l3.76.752.752 3.76a.586.586 0 001 .288l7.224-7.61a2.75 2.75 0 001.146-.002l7.323 7.615a.586.586 0 00.997-.291l.752-3.76 3.76-.752a.586.586 0 00.309-.98l-5.879-6.156a1.81 1.81 0 01.247-.057c.673-.106 1.183-.474 1.558-1.125.36-.624.426-1.258.194-1.885-.267-.719-.071-1.458.51-1.929.53-.427.788-1 .788-1.752 0-.721-.26-1.303-.776-1.73-.59-.488-.79-1.226-.52-1.926.244-.634.18-1.26-.196-1.91-.36-.626-.877-1-1.535-1.11-.756-.129-1.298-.668-1.415-1.409-.106-.671-.474-1.18-1.125-1.557-.625-.36-1.26-.425-1.885-.192-.718.266-1.457.07-1.928-.513C15.275.257 14.702 0 13.95 0c-.72 0-1.302.26-1.729.775-.49.59-1.227.79-1.926.521-.636-.244-1.26-.18-1.911.195-.625.361-.999.878-1.11 1.537-.128.755-.668 1.297-1.407 1.414-.672.105-1.182.473-1.558 1.124-.36.625-.426 1.259-.193 1.885.267.72.07 1.459-.512 1.93-.53.428-.786 1-.786 1.752 0 .721.26 1.303.775 1.729.59.49.79 1.227.521 1.926-.245.636-.18 1.26.195 1.911.36.625.877.999 1.536 1.11.095.016.188.04.278.07L.331 24.041a.586.586 0 00.312.976zm4.885.403l-.052-.264a.586.586 0 00-.46-.46l-.358-.071 3.612-3.921c.4.255.837.409 1.304.399L5.528 25.42zm.554 2.771l-.271-1.358 5.546-5.918c.325.094.618.288.842.565.04.048.08.094.123.138l-6.24 6.573zm15.834.009l-6.34-6.593c.036-.037.07-.076.105-.117.235-.284.536-.482.868-.576l5.64 5.921-.273 1.365zm1.068-3.504a.586.586 0 00-.46.46l-.055.275-4.112-4.318c.383 0 .767-.111 1.16-.338.041-.024.081-.049.12-.074l3.693 3.926-.346.07zm3.099-.62l-1.4.28-4.25-4.519c.093-.184.158-.384.195-.6.039-.231.118-.443.231-.631l5.224 5.47zM6.042 16.655c-.222-.038-.481-.132-.717-.54-.246-.426-.197-.696-.116-.905.448-1.166.108-2.441-.868-3.25-.173-.143-.35-.354-.35-.826 0-.49.177-.7.35-.841.972-.786 1.315-2.06.874-3.248-.078-.212-.126-.483.11-.891.246-.426.504-.519.725-.553 1.234-.195 2.168-1.128 2.38-2.376.038-.223.132-.482.54-.718.425-.245.696-.196.905-.116 1.166.449 2.441.109 3.25-.867.143-.174.354-.351.826-.351.49 0 .7.178.841.351.786.972 2.06 1.315 3.249.874.21-.078.482-.127.89.109.425.246.519.505.553.725.195 1.234 1.127 2.169 2.377 2.381.221.038.48.131.716.54.246.426.197.696.117.904-.449 1.167-.108 2.442.867 3.25.174.144.351.355.351.827 0 .49-.177.7-.352.84-.971.786-1.314 2.061-.873 3.249.078.211.126.482-.11.891-.245.425-.504.518-.725.553-1.24.196-2.17 1.133-2.38 2.375-.056.334-.238.544-.54.718-.425.246-.696.197-.904.116a2.832 2.832 0 00-1.337-.178c-.74.079-1.42.45-1.913 1.046-.217.262-.478.35-.827.35-.431 0-.662-.13-.841-.35a2.827 2.827 0 00-2.212-1.064c-.348 0-.695.063-1.036.19-.211.078-.482.126-.891-.11-.38-.22-.51-.45-.553-.725-.192-1.212-1.108-2.165-2.376-2.38zm1.003 1.957c.107.182.18.385.216.606.035.227.104.438.203.632l-4.152 4.507-1.404-.281 5.137-5.464z" fill="#118BDD"/><path d="M18.98 16.64a.586.586 0 100-1.171.586.586 0 000 1.172z" fill="#118BDD"/><path d="M14 18.75a7.563 7.563 0 003.062-.64.586.586 0 10-.472-1.073 6.453 6.453 0 01-9.035-5.904A6.453 6.453 0 0114 4.688a6.453 6.453 0 015.934 8.965.586.586 0 101.078.459 7.567 7.567 0 00.605-2.98c0-4.2-3.417-7.616-7.617-7.616s-7.617 3.417-7.617 7.617S9.8 18.75 14 18.75z" fill="#118BDD"/></svg>