<svg width="30" height="30" fill="none" xmlns="http://www.w3.org/2000/svg"><path d="M12.657 20.273a.586.586 0 100-1.171.586.586 0 000 1.171zM2.344 7.969v2.343c0 .324.263.586.586.586h16.934a.586.586 0 00.586-.585V7.969a.586.586 0 00-.586-.586H2.93a.586.586 0 00-.586.586zm6.211.586h10.723v1.172H8.555V8.555zm-5.039 0h3.868v1.172H3.516V8.555zm-.586 4.687h16.934a.586.586 0 100-1.172H2.93a.586.586 0 100 1.172zm0 2.344h16.934a.586.586 0 100-1.172H2.93a.586.586 0 100 1.172zm0 2.344h9.727a.586.586 0 100-1.172H2.93a.586.586 0 100 1.172zm0 2.343h7.383a.586.586 0 100-1.171H2.93a.586.586 0 100 1.171zm5.04 4.687h2.988a2.935 2.935 0 002.87 2.345 2.933 2.933 0 002.93-2.93 2.933 2.933 0 00-2.93-2.93 2.935 2.935 0 00-2.87 2.344H7.97a.586.586 0 100 1.172zm5.859-1.17h-1.657a1.76 1.76 0 011.657-1.173c.97 0 1.758.789 1.758 1.758a1.76 1.76 0 01-1.758 1.758 1.76 1.76 0 01-1.657-1.172h1.657a.586.586 0 000-1.172zm6.035-19.102a.586.586 0 100-1.172h-1.172a.586.586 0 000 1.171h1.172zm-3.516 0a.586.586 0 000-1.172h-1.171a.586.586 0 000 1.171h1.171zm-3.515 0a.586.586 0 000-1.172H11.66a.586.586 0 000 1.171h1.172zM11.485 30a.586.586 0 100-1.172.586.586 0 000 1.172z" fill="#118BDD"/><path d="M.587 30h8.261a.586.586 0 100-1.172H1.173V5.86h4.101a.586.586 0 00.586-.586V1.172h15.762v16.561a15.42 15.42 0 01-.729.811l-1.242-1.242a2.927 2.927 0 00-4.143 0l-.83.829a.586.586 0 000 .828l6.944 6.943v2.926h-7.5a.586.586 0 100 1.172h8.086a.586.586 0 00.586-.586v-2.34l.171.172c.23.228.6.228.829 0l.828-.829a2.928 2.928 0 000-4.143l-1.241-1.242c1.11-1.083 3.556-2.882 4.84-3.442 1.803-.785 2.454-3.236.916-4.774-1.527-1.528-3.968-.907-4.767.901-.3.678-.922 1.63-1.576 2.523V.586A.586.586 0 0022.208 0H5.274c-.16 0-.31.067-.414.172L.172 4.859a.589.589 0 00-.171.414v24.141c0 .324.262.586.586.586zm23.207-6.898a1.757 1.757 0 010 2.486l-.414.415-7.458-7.458.414-.414a1.756 1.756 0 012.486 0l4.972 4.971zm-1.127-4.791c1.015-1.225 2.267-2.974 2.774-4.12.456-1.03 1.903-1.51 2.867-.547.964.964.474 2.424-.555 2.872-1.457.635-3.995 2.508-5.201 3.687l-.83-.83c.278-.284.602-.649.945-1.062zM4.688 2v2.687H2.001L4.688 2z" fill="#118BDD"/></svg>