<svg width="22" height="30" fill="none" xmlns="http://www.w3.org/2000/svg"><path d="M21.031 9.983C20.466-3.322 1.551-3.328.97 9.968A10.03 10.03 0 003.374 16.5c.426.498.805 1.033 1.132 1.597-1.943 1.21-.957 4.076 1.343 3.88.141.861.098 2.165.104 3.045a2.94 2.94 0 002.465 2.898c.637 2.774 4.529 2.772 5.165 0a2.94 2.94 0 002.465-2.898c.006-.883-.038-2.181.105-3.045 2.296.195 3.281-2.662 1.35-3.875a11.28 11.28 0 011.153-1.637 10.033 10.033 0 002.375-6.482zm-10.03 18.854c-.6 0-1.117-.362-1.344-.88h2.686c-.227.518-.743.88-1.343.88zm2.112-2.053H8.888a1.766 1.766 0 01-1.761-1.816h7.747c.03.99-.77 1.817-1.761 1.816zm3.333-5.98H15.06c-.725.02-.798 1.038-.09 1.166-.08.6-.102 1.218-.095 1.823H7.127a12.93 12.93 0 00-.094-1.816h2.742a.587.587 0 100-1.174h-4.22a.91.91 0 010-1.816h10.891c1.202.048 1.208 1.765 0 1.816zm-4.676-7.728a1.772 1.772 0 00-1.54 0l-2.204-3.048h1.22c.2 0 .387-.102.494-.271l.45-.704.987 2.255c.178.426.793.473 1.034.077l.855-1.357h.909l-2.204 3.048zm-1.357 1.584c-.002-.546.697-.796 1.04-.373l.002.002a.582.582 0 01.132.371v3.153h-1.174V14.66zm5.905 3.153h-3.556V14.66c0-.257-.055-.505-.16-.732l2.822-3.9h1.258c.779-.03.779-1.143 0-1.174h-.409l.506-.7c.431-.648-.47-1.3-.951-.688l-1.004 1.388h-2.082a.587.587 0 00-.497.274l-.437.694-.984-2.247c-.178-.425-.792-.474-1.033-.08l-.867 1.36H7.177l-1.004-1.39c-.482-.612-1.383.04-.952.689l.506.7H5.32c-.78.03-.779 1.143 0 1.173h1.258l2.821 3.901a1.75 1.75 0 00-.159.731v3.153H5.693c-.4-.738-.878-1.435-1.427-2.076C-.627 10.059 3.496 1.101 11 1.127c7.487-.026 11.616 8.894 6.76 14.58a12.438 12.438 0 00-1.442 2.106z" fill="#118BDD"/><path d="M12.96 21.614a.587.587 0 10-1.084-.452.587.587 0 001.084.452z" fill="#118BDD"/></svg>