<svg width="30" height="30" fill="none" xmlns="http://www.w3.org/2000/svg"><path d="M28.656 26.656a.586.586 0 00-.829.829l.172.171H2.343V2.001l.172.171a.584.584 0 00.829 0 .586.586 0 000-.829L2.172.172a.586.586 0 00-.829 0L.171 1.343a.586.586 0 00.829.83L1.17 2v4.562H.585a.586.586 0 000 1.171h.586v2.344H.585a.586.586 0 000 1.172h.586v2.344H.585a.586.586 0 000 1.172h.586v2.343H.585a.586.586 0 000 1.172h.586v2.344H.585a.586.586 0 000 1.172h.586v2.344H.585a.586.586 0 000 1.172h.586v2.343H.585a.586.586 0 000 1.172h.586v.586a.586.586 0 001.172 0v-.586h2.344v.586a.586.586 0 001.172 0v-.586h2.344v.586a.586.586 0 001.172 0v-.586h2.343v.586a.586.586 0 001.172 0v-.586h2.344v.586a.586.586 0 001.172 0v-.586h2.344v.586a.586.586 0 001.171 0v-.586h2.344v.586a.586.586 0 001.172 0v-.586H28l-.172.172a.586.586 0 00.83.828l1.17-1.171a.586.586 0 000-.83l-1.17-1.171zM14.648 10.078a.586.586 0 100-1.172.586.586 0 000 1.172z" fill="#118BDD"/><path d="M18.164 0h-3.516a.586.586 0 00-.585.586v6.27a.586.586 0 001.171 0V1.171h2.344v24.14h-2.344V12.13a.586.586 0 00-1.171 0v7.324h-2.344V8.32a.586.586 0 00-.586-.586H7.617a.586.586 0 00-.586.586v4.102h-2.93a.586.586 0 00-.585.586v12.89c0 .324.262.586.586.586h21.093a.586.586 0 00.586-.586V20.04a.586.586 0 00-.586-.586h-2.93v-6.445a.586.586 0 00-.585-.586h-2.93V.586A.586.586 0 0018.164 0zM7.031 25.313H4.688v-11.72H7.03v11.72zm3.516 0H8.203V8.905h2.344v16.407zm3.515 0H11.72v-4.688h2.344v4.688zm8.204-4.688h2.343v4.688h-2.343v-4.688zm-1.172-7.031v11.719H18.75v-11.72h2.344z" fill="#118BDD"/></svg>