<svg width="24" height="40" viewBox="0 0 24 40" fill="none" xmlns="http://www.w3.org/2000/svg">
<path d="M23.3898 0.363181C23.261 0.138506 23.0218 0 22.7628 0H7.86144C7.55127 0 7.27561 0.19788 7.17643 0.491759L0.790114 19.4141C0.715705 19.6347 0.752138 19.8777 0.887849 20.0668C1.02366 20.2559 1.24226 20.3681 1.47513 20.3681H7.52929L0.561391 39.0242C0.438211 39.354 0.570644 39.7247 0.87503 39.9019C0.988765 39.968 1.11407 40 1.23831 40C1.4465 40 1.65151 39.9102 1.7931 39.741L21.1886 16.5613C21.3687 16.3459 21.4079 16.0458 21.2891 15.7914C21.1704 15.5371 20.9149 15.3745 20.6342 15.3745H15.0347L23.3869 1.08781C23.5176 0.864193 23.5188 0.587855 23.3898 0.363181ZM13.1505 15.7323C13.0198 15.956 13.0186 16.2323 13.1476 16.457C13.2765 16.6816 13.5156 16.8201 13.7746 16.8201H19.0865L3.39243 35.5766L9.24823 19.8981C9.33113 19.6762 9.29999 19.4278 9.16486 19.2331C9.02982 19.0385 8.80795 18.9223 8.57103 18.9223H2.48207L8.38038 1.44578H21.5028L13.1505 15.7323Z" fill="#E4E4E4"/>
</svg>
