<svg width="20" height="20" viewBox="0 0 20 20" fill="none" xmlns="http://www.w3.org/2000/svg">
<path d="M10.0007 0C6.32473 0 3.33398 2.99074 3.33398 6.66668C3.33398 7.7702 3.60988 8.86434 4.13437 9.8348L9.63609 19.7852C9.70934 19.9178 9.84891 20 10.0007 20C10.1524 20 10.292 19.9178 10.3652 19.7852L15.869 9.83152C16.3914 8.86434 16.6673 7.77016 16.6673 6.66664C16.6673 2.99074 13.6766 0 10.0007 0ZM10.0007 10C8.16269 10 6.66734 8.50465 6.66734 6.66668C6.66734 4.82871 8.16269 3.33336 10.0007 3.33336C11.8386 3.33336 13.334 4.82871 13.334 6.66668C13.334 8.50465 11.8386 10 10.0007 10Z" fill="white"/>
</svg>
