<svg width="30" height="30" fill="none" xmlns="http://www.w3.org/2000/svg"><g clip-path="url(#clip0)" fill="#ADADAD"><path d="M21.563 15h-3.75a.937.937 0 00-.938.938v7.5c0 .517.42.937.938.937h3.75c1.035 0 1.875-.84 1.875-1.875v-5.625c0-1.036-.84-1.875-1.875-1.875zm0 7.5H18.75v-5.625h2.813V22.5zM30 16.875V15h-4.688a.937.937 0 00-.937.938v8.437h1.875v-3.75H30V18.75h-3.75v-1.875H30z"/><path d="M1.875 27.187V2.812c0-.518.42-.937.938-.937h14.062v3.75c0 1.035.84 1.875 1.875 1.875h3.75v2.812h1.875v-3.75a.937.937 0 00-.272-.665L18.478.272A.938.938 0 0017.812 0h-15A2.813 2.813 0 000 2.812v24.375A2.812 2.812 0 002.813 30h6.562v-1.875H2.812a.938.938 0 01-.937-.938z"/><path d="M14.063 15h-3.75a.937.937 0 00-.938.938v8.437h1.875v-2.813h2.813a1.874 1.874 0 001.874-1.875v-2.812A1.874 1.874 0 0014.063 15zm0 4.688H11.25v-2.813h2.813v2.813z"/></g><defs><clipPath id="clip0"><path fill="#fff" d="M0 0h30v30H0z"/></clipPath></defs></svg>