<svg width="187" height="161" viewBox="0 0 187 161" fill="none" xmlns="http://www.w3.org/2000/svg">
<path fill-rule="evenodd" clip-rule="evenodd" d="M185.158 92.5927L174.817 81.7736L164.956 70.2756L156.787 56.6418L158.81 54.0981L160.761 51.5883L162.784 49.1115V47.5516V46.0938V44.6349L155.535 40.4293L148.102 38.1235L140.632 37.0036L130.991 36.4276L121.425 35.7487L112.115 33.6459L109.906 27.8464L107.736 22.1149L105.564 16.4504L99.3453 17.8413L93.6057 20.2151L88.3062 18.9602V15.4665V12.0408V8.71711L73.624 3.15462L59.3839 2.71465L45.4009 3.59556L31.491 1.93372L31.2709 5.05444L31.1599 8.20916L31.0869 11.3969L28.7682 13.9067L26.4496 16.4504L24.1319 18.9602L23.9108 20.961L23.7638 22.9958L23.6898 25.1326L24.242 26.1506L24.8311 27.2694L25.4933 28.4234L15.3374 42.6001L9.22865 50.8074L3.06491 58.2017L1.02332 69.4617V80.2477L1.81456 93.5766L6.91101 94.7295L12.8717 95.8824L18.4283 97.0363L25.4563 106.023L32.4853 109.89L42.3101 108.025L44.5907 95.7474L46.0631 89.7779L47.8667 85.0293L63.7622 88.421L81.2412 98.7661L96.7696 110.772L98.0949 115.419L99.0512 120.913L100.45 132.004L108.508 141.602L119.621 148.25L130.366 154.592L135.96 155.203L137.762 157.408L140.301 159.884L148.838 158.018L156.344 152.048L161.938 140.551L157.743 128.951L157.044 121.795L160.982 112.299L169.003 105.719L177.062 99.1731L185.158 92.5927Z" fill="#F2F2F2" stroke="#CDCDCD" stroke-width="2" stroke-linecap="round" stroke-linejoin="round" stroke-dasharray="10 10"/>
</svg>
