<svg width="143" height="173" viewBox="0 0 143 173" fill="none" xmlns="http://www.w3.org/2000/svg">
<path fill-rule="evenodd" clip-rule="evenodd" d="M1.34785 110.539L5.80013 99.0924L12.277 88.2733L18.7898 78.5732L19.7471 74.2656L20.0782 68.4321L20.1512 56.1542L19.2319 42.4184L20.1512 30.6835L21.9057 18.7655L33.9141 15.9298L49.1114 10.3673L61.696 1.76904L73.9125 13.216L86.7551 20.0334L100.223 21.6953L115.199 17.7776L115.64 23.8661V30.4115V36.6189L113.102 41.8755L111.85 46.3861L111.004 53.8144L117.554 66.0243L124.031 78.2002L130.581 90.5462L136.505 105.978L140.037 117.34L141.436 128.024L140.995 141.421L138.965 161.05L134.592 165.263L130.618 165.704L126.901 164.959L126.348 163.501L125.833 162.11L125.392 160.719L116.782 160.787L112.918 161.228L110.489 162.483L100.774 171.267L86.6081 169.198L74.7217 164.959L69.0921 152.953L63.4985 141.014L57.9059 129.041L52.9015 128.092L47.8971 127.277L42.9657 126.497L42.0094 121.85L41.1262 117.306L40.2799 112.761L27.1802 111.879L14.1535 111.031L1.34785 110.539Z" fill="#F2F2F2" stroke="#CDCDCD" stroke-width="2" stroke-linecap="round" stroke-linejoin="round" stroke-dasharray="10 10"/>
</svg>
