<svg width="164" height="208" viewBox="0 0 164 208" fill="none" xmlns="http://www.w3.org/2000/svg">
<path fill-rule="evenodd" clip-rule="evenodd" d="M68.2896 188.425L82.6767 192.731L96.9908 198.532L112.188 206.129L122.418 201.517L131.728 194.224L141.332 186.932L148.102 184.863L155.094 182.862L162.067 181.15L159.878 164.717L157.339 156.713L150.568 148.436L138.462 141.925L130.219 133.989L125.473 116.725L124.222 115.571L122.97 114.418L121.756 113.266V112.113V110.925V109.772L123.228 108.721L124.884 108.517L128.306 109.026L126.503 93.6283L122.418 86.3019L114.801 82.5713L118.334 71.3783L117.414 65.6808L111.489 61.1019L104.792 51.7409L96.8437 42.1764L80.7632 24.1667L74.5814 23.5902L68.3626 23.0814L62.1439 22.6066L53.7545 16.8069L45.4011 11.075L37.0477 5.41091L29.6516 3.78296L21.7774 2.69765L13.277 1.46826L12.5408 15.0433L13.24 26.6087L15.5956 40.9216L16.1468 60.8984L16.0738 75.2789L14.1972 86.4709L9.63392 96.986L1.17052 109.365L2.863 114.418L4.55649 119.608L6.24897 124.798L8.01547 147.622L10.9953 160.477L16.2948 165.701L25.0523 165.904L38.4101 163.462L39.1453 167.837L39.2924 172.28L39.7715 176.215L49.3752 180.488L59.016 184.795L68.6937 189.171" fill="#F2F2F2"/>
<path d="M82.6767 192.731L83.0523 191.805C83.0232 191.793 82.9935 191.782 82.9635 191.773L82.6767 192.731ZM96.9908 198.532L97.4379 197.638C97.4145 197.626 97.3906 197.615 97.3663 197.605L96.9908 198.532ZM112.188 206.129L111.741 207.024C112.01 207.158 112.325 207.164 112.599 207.041L112.188 206.129ZM122.418 201.517L122.829 202.428C122.902 202.395 122.971 202.353 123.035 202.304L122.418 201.517ZM131.728 194.224L131.123 193.428C131.119 193.431 131.115 193.434 131.111 193.437L131.728 194.224ZM141.332 186.932L141.04 185.976C140.927 186.01 140.822 186.064 140.728 186.136L141.332 186.932ZM148.102 184.863L147.827 183.902C147.821 183.903 147.816 183.905 147.81 183.907L148.102 184.863ZM155.094 182.862L154.856 181.891C154.844 181.894 154.831 181.897 154.819 181.901L155.094 182.862ZM162.067 181.15L162.306 182.121C162.802 181.999 163.126 181.523 163.059 181.017L162.067 181.15ZM159.878 164.717L160.869 164.585C160.861 164.527 160.848 164.47 160.831 164.415L159.878 164.717ZM157.339 156.713L158.292 156.41C158.254 156.29 158.193 156.177 158.113 156.079L157.339 156.713ZM150.568 148.436L151.342 147.803C151.259 147.702 151.157 147.618 151.042 147.556L150.568 148.436ZM138.462 141.925L137.768 142.645C137.834 142.709 137.908 142.763 137.988 142.806L138.462 141.925ZM130.219 133.989L129.255 134.254C129.303 134.427 129.396 134.584 129.526 134.709L130.219 133.989ZM125.473 116.725L126.437 116.46C126.388 116.28 126.288 116.117 126.151 115.99L125.473 116.725ZM124.222 115.571L124.899 114.836L124.899 114.836L124.222 115.571ZM122.97 114.418L122.282 115.144C122.285 115.147 122.289 115.15 122.293 115.154L122.97 114.418ZM121.756 113.266H120.756C120.756 113.54 120.868 113.802 121.067 113.991L121.756 113.266ZM121.756 109.772L121.175 108.958C120.912 109.146 120.756 109.449 120.756 109.772H121.756ZM123.228 108.721L123.106 107.728C122.941 107.749 122.783 107.81 122.647 107.907L123.228 108.721ZM124.884 108.517L125.031 107.528C124.942 107.515 124.851 107.513 124.761 107.524L124.884 108.517ZM128.306 109.026L128.159 110.015C128.466 110.061 128.778 109.961 129.002 109.744C129.225 109.527 129.335 109.219 129.299 108.91L128.306 109.026ZM126.503 93.6283L127.496 93.512C127.481 93.3818 127.44 93.2558 127.377 93.1413L126.503 93.6283ZM122.418 86.3019L123.291 85.8149C123.192 85.6369 123.041 85.4935 122.858 85.4039L122.418 86.3019ZM114.801 82.5713L113.847 82.2703C113.698 82.742 113.917 83.2517 114.361 83.4693L114.801 82.5713ZM118.334 71.3783L119.287 71.6793C119.334 71.5305 119.346 71.3728 119.321 71.2188L118.334 71.3783ZM117.414 65.6808L118.401 65.5213C118.36 65.2707 118.226 65.0448 118.025 64.8895L117.414 65.6808ZM111.489 61.1019L110.676 61.6837C110.732 61.763 110.8 61.8335 110.877 61.8931L111.489 61.1019ZM104.792 51.7409L105.605 51.1591C105.591 51.1394 105.577 51.1203 105.561 51.1018L104.792 51.7409ZM96.8437 42.1764L97.6128 41.5373C97.6053 41.5282 97.5975 41.5192 97.5897 41.5104L96.8437 42.1764ZM80.7632 24.1667L81.5091 23.5007C81.3409 23.3123 81.1075 23.1945 80.856 23.1711L80.7632 24.1667ZM74.5814 23.5902L74.6743 22.5945L74.663 22.5935L74.5814 23.5902ZM68.3626 23.0814L68.4442 22.0848L68.4388 22.0843L68.3626 23.0814ZM62.1439 22.6066L61.5752 23.4292C61.721 23.53 61.891 23.5902 62.0677 23.6037L62.1439 22.6066ZM53.7545 16.8069L54.3231 15.9843L54.3203 15.9823L53.7545 16.8069ZM45.4011 11.075L45.9669 10.2504L45.9623 10.2473L45.4011 11.075ZM37.0477 5.41091L37.6089 4.58324C37.504 4.51209 37.3865 4.46154 37.2627 4.43429L37.0477 5.41091ZM29.6516 3.78296L29.8666 2.80634C29.8406 2.80063 29.8145 2.79595 29.7882 2.79232L29.6516 3.78296ZM21.7774 2.69765L21.6343 3.68738L21.6409 3.68829L21.7774 2.69765ZM13.277 1.46826L13.4201 0.478559C13.1423 0.438373 12.8603 0.516841 12.6431 0.694788C12.426 0.872735 12.2936 1.13377 12.2784 1.41411L13.277 1.46826ZM12.5408 15.0433L11.5422 14.9891C11.5402 15.0272 11.5403 15.0655 11.5426 15.1036L12.5408 15.0433ZM13.24 26.6087L12.2418 26.6691C12.2438 26.7033 12.2477 26.7373 12.2532 26.7711L13.24 26.6087ZM15.5956 40.9216L16.5952 40.894C16.594 40.8488 16.5897 40.8038 16.5824 40.7592L15.5956 40.9216ZM16.1468 60.8984L17.1468 60.9035C17.1468 60.8926 17.1467 60.8817 17.1464 60.8708L16.1468 60.8984ZM16.0738 75.2789L17.06 75.4443C17.0689 75.3913 17.0735 75.3377 17.0738 75.284L16.0738 75.2789ZM14.1972 86.4709L15.1146 86.869C15.1469 86.7945 15.17 86.7164 15.1835 86.6363L14.1972 86.4709ZM9.63392 96.986L10.4594 97.5504C10.4952 97.498 10.526 97.4423 10.5513 97.3841L9.63392 96.986ZM1.17052 109.365L0.345012 108.8C0.168244 109.059 0.122819 109.385 0.222283 109.682L1.17052 109.365ZM2.863 114.418L3.81369 114.108L3.81123 114.101L2.863 114.418ZM4.55649 119.608L5.50721 119.298L5.50715 119.298L4.55649 119.608ZM6.24897 124.798L7.24599 124.72C7.23986 124.641 7.22432 124.563 7.19969 124.487L6.24897 124.798ZM8.01547 147.622L7.01845 147.7C7.02232 147.75 7.02996 147.799 7.0413 147.848L8.01547 147.622ZM10.9953 160.477L10.0211 160.703C10.064 160.888 10.1583 161.056 10.2933 161.19L10.9953 160.477ZM16.2948 165.701L15.5928 166.413C15.7742 166.592 16.017 166.695 16.2716 166.701L16.2948 165.701ZM25.0523 165.904L25.0291 166.904C25.0972 166.905 25.1652 166.9 25.2321 166.888L25.0523 165.904ZM38.4101 163.462L39.3963 163.296C39.3519 163.032 39.2036 162.797 38.9844 162.643C38.7653 162.49 38.4936 162.43 38.2303 162.478L38.4101 163.462ZM39.1453 167.837L40.1448 167.804C40.1433 167.759 40.1389 167.715 40.1315 167.671L39.1453 167.837ZM39.2924 172.28L38.2929 172.313C38.2939 172.343 38.2961 172.372 38.2997 172.401L39.2924 172.28ZM39.7715 176.215L38.7788 176.336C38.8213 176.685 39.0439 176.986 39.365 177.129L39.7715 176.215ZM49.3752 180.488L49.7832 179.575L49.7817 179.574L49.3752 180.488ZM59.016 184.795L59.428 183.884L59.4239 183.882L59.016 184.795ZM71.5996 190.46C72.1287 190.618 72.686 190.317 72.8444 189.788C73.0028 189.259 72.7022 188.702 72.1732 188.544L71.5996 190.46ZM79.3667 190.697C78.8376 190.538 78.2803 190.839 78.1219 191.368C77.9636 191.897 78.2641 192.454 78.7932 192.613L79.3667 190.697ZM85.8797 195.108C86.3915 195.316 86.9746 195.069 87.182 194.557C87.3894 194.045 87.1426 193.462 86.6308 193.255L85.8797 195.108ZM93.7878 196.155C93.276 195.948 92.6929 196.194 92.4855 196.706C92.278 197.218 92.5248 197.801 93.0367 198.009L93.7878 196.155ZM100.343 201.326C100.837 201.573 101.438 201.372 101.685 200.878C101.932 200.384 101.731 199.784 101.237 199.537L100.343 201.326ZM108.836 203.335C108.342 203.089 107.741 203.289 107.494 203.783C107.247 204.277 107.448 204.877 107.942 205.124L108.836 203.335ZM115.157 205.888C115.66 205.661 115.884 205.069 115.657 204.565C115.43 204.062 114.838 203.838 114.335 204.065L115.157 205.888ZM119.449 201.758C118.946 201.985 118.722 202.577 118.949 203.081C119.176 203.584 119.768 203.808 120.272 203.581L119.449 201.758ZM125.362 200.481C125.797 200.14 125.873 199.512 125.533 199.077C125.192 198.642 124.564 198.566 124.129 198.906L125.362 200.481ZM128.784 195.26C128.349 195.601 128.272 196.229 128.613 196.664C128.954 197.099 129.582 197.175 130.017 196.835L128.784 195.26ZM134.734 193.198C135.173 192.864 135.259 192.236 134.925 191.797C134.591 191.357 133.964 191.271 133.524 191.605L134.734 193.198ZM138.327 187.959C137.887 188.293 137.801 188.92 138.135 189.36C138.469 189.8 139.096 189.885 139.536 189.552L138.327 187.959ZM143.317 187.371C143.845 187.21 144.143 186.651 143.981 186.123C143.82 185.594 143.261 185.297 142.733 185.458L143.317 187.371ZM146.118 184.424C145.589 184.585 145.292 185.144 145.454 185.673C145.615 186.201 146.174 186.498 146.702 186.337L146.118 184.424ZM150.125 185.324C150.656 185.172 150.964 184.619 150.812 184.088C150.66 183.557 150.106 183.25 149.575 183.402L150.125 185.324ZM153.071 182.401C152.54 182.553 152.233 183.107 152.385 183.638C152.537 184.169 153.09 184.476 153.621 184.324L153.071 182.401ZM157.076 183.405C157.612 183.274 157.94 182.732 157.809 182.196C157.677 181.659 157.135 181.331 156.599 181.463L157.076 183.405ZM160.086 180.607C159.549 180.738 159.221 181.28 159.353 181.816C159.485 182.353 160.026 182.681 160.563 182.549L160.086 180.607ZM162.511 176.909C162.438 176.362 161.935 175.977 161.388 176.05C160.84 176.123 160.456 176.626 160.529 177.173L162.511 176.909ZM159.434 168.957C159.507 169.505 160.01 169.889 160.557 169.816C161.105 169.743 161.489 169.24 161.416 168.693L159.434 168.957ZM160.196 162.414C160.029 161.887 159.467 161.596 158.941 161.763C158.414 161.93 158.123 162.492 158.29 163.018L160.196 162.414ZM157.02 159.016C157.187 159.543 157.75 159.834 158.276 159.667C158.802 159.5 159.094 158.938 158.927 158.411L157.02 159.016ZM156.42 154.01C156.07 153.583 155.44 153.52 155.013 153.87C154.586 154.219 154.523 154.849 154.872 155.277L156.42 154.01ZM151.487 151.139C151.836 151.566 152.466 151.629 152.894 151.279C153.321 150.93 153.384 150.3 153.035 149.872L151.487 151.139ZM148.015 145.928C147.529 145.666 146.922 145.848 146.661 146.335C146.399 146.821 146.581 147.428 147.068 147.689L148.015 145.928ZM141.015 144.434C141.501 144.695 142.107 144.513 142.369 144.027C142.631 143.54 142.448 142.934 141.962 142.672L141.015 144.434ZM137.095 139.221C136.697 138.837 136.064 138.849 135.681 139.247C135.298 139.645 135.31 140.278 135.707 140.661L137.095 139.221ZM131.586 136.693C131.984 137.076 132.617 137.064 133 136.666C133.383 136.269 133.371 135.635 132.973 135.252L131.586 136.693ZM129.997 129.408C129.85 128.875 129.3 128.562 128.768 128.709C128.235 128.855 127.922 129.405 128.068 129.938L129.997 129.408ZM125.695 121.306C125.842 121.839 126.392 122.152 126.925 122.005C127.457 121.859 127.77 121.309 127.624 120.776L125.695 121.306ZM125.838 115.702C125.432 115.327 124.799 115.353 124.425 115.759C124.05 116.165 124.076 116.798 124.482 117.172L125.838 115.702ZM123.856 116.595C124.262 116.969 124.895 116.944 125.27 116.538C125.644 116.132 125.618 115.499 125.212 115.125L123.856 116.595ZM124.586 114.548C124.18 114.173 123.547 114.199 123.173 114.606C122.799 115.012 122.825 115.644 123.231 116.019L124.586 114.548ZM122.605 115.442C123.012 115.816 123.644 115.79 124.018 115.384C124.393 114.978 124.367 114.345 123.961 113.971L122.605 115.442ZM123.355 113.405C122.955 113.025 122.322 113.041 121.941 113.442C121.561 113.842 121.578 114.475 121.978 114.855L123.355 113.405ZM121.371 114.279C121.771 114.659 122.404 114.643 122.785 114.242C123.165 113.842 123.148 113.209 122.748 112.829L121.371 114.279ZM122.756 112.977C122.756 112.425 122.308 111.977 121.756 111.977C121.204 111.977 120.756 112.425 120.756 112.977H122.756ZM120.756 112.401C120.756 112.953 121.204 113.401 121.756 113.401C122.308 113.401 122.756 112.953 122.756 112.401H120.756ZM122.756 111.816C122.756 111.263 122.308 110.816 121.756 110.816C121.204 110.816 120.756 111.263 120.756 111.816H122.756ZM120.756 111.222C120.756 111.774 121.204 112.222 121.756 112.222C122.308 112.222 122.756 111.774 122.756 111.222H120.756ZM122.756 110.637C122.756 110.084 122.308 109.637 121.756 109.637C121.204 109.637 120.756 110.084 120.756 110.637H122.756ZM120.756 110.06C120.756 110.612 121.204 111.06 121.756 111.06C122.308 111.06 122.756 110.612 122.756 110.06H120.756ZM122.705 110.323C123.154 110.002 123.259 109.378 122.938 108.928C122.617 108.479 121.993 108.374 121.543 108.695L122.705 110.323ZM122.279 108.17C121.83 108.491 121.725 109.115 122.046 109.565C122.367 110.014 122.992 110.118 123.441 109.798L122.279 108.17ZM123.764 109.662C124.313 109.595 124.702 109.096 124.635 108.548C124.567 108 124.068 107.61 123.52 107.677L123.764 109.662ZM124.348 107.575C123.799 107.643 123.41 108.142 123.477 108.69C123.545 109.238 124.044 109.628 124.592 109.56L124.348 107.575ZM125.592 109.633C126.138 109.715 126.647 109.338 126.728 108.791C126.81 108.245 126.433 107.736 125.886 107.655L125.592 109.633ZM127.597 107.91C127.051 107.828 126.542 108.205 126.461 108.752C126.38 109.298 126.757 109.807 127.303 109.888L127.597 107.91ZM128.848 105.06C128.784 104.512 128.287 104.119 127.739 104.183C127.19 104.248 126.798 104.744 126.862 105.293L128.848 105.06ZM125.961 97.594C126.025 98.1425 126.522 98.5351 127.07 98.4709C127.619 98.4067 128.011 97.91 127.947 97.3614L125.961 97.594ZM126.355 91.3097C126.086 90.8273 125.477 90.6543 124.995 90.9233C124.513 91.1923 124.34 91.8013 124.608 92.2837L126.355 91.3097ZM122.566 88.6205C122.835 89.1029 123.444 89.2759 123.926 89.0069C124.409 88.7379 124.582 88.1289 124.313 87.6465L122.566 88.6205ZM120.954 84.4712C120.458 84.2283 119.859 84.4334 119.616 84.9294C119.373 85.4254 119.578 86.0244 120.074 86.2673L120.954 84.4712ZM116.265 84.402C116.761 84.6449 117.36 84.4398 117.603 83.9438C117.846 83.4478 117.641 82.8488 117.145 82.6059L116.265 84.402ZM116.638 80.074C116.804 79.5473 116.512 78.9856 115.985 78.8194C115.458 78.6531 114.897 78.9453 114.73 79.472L116.638 80.074ZM116.497 73.8755C116.331 74.4022 116.623 74.9639 117.15 75.1301C117.676 75.2964 118.238 75.0042 118.404 74.4775L116.497 73.8755ZM119.091 69.7944C119.003 69.2492 118.49 68.8786 117.944 68.9667C117.399 69.0547 117.029 69.5681 117.117 70.1133L119.091 69.7944ZM116.656 67.2646C116.745 67.8098 117.258 68.1804 117.803 68.0923C118.348 68.0043 118.719 67.4909 118.631 66.9457L116.656 67.2646ZM116.544 63.7448C116.107 63.4071 115.479 63.4875 115.141 63.9245C114.803 64.3615 114.884 64.9895 115.321 65.3273L116.544 63.7448ZM112.359 63.0378C112.796 63.3756 113.424 63.2951 113.761 62.8581C114.099 62.4211 114.019 61.7931 113.582 61.4554L112.359 63.0378ZM110.628 58.1798C110.307 57.7306 109.682 57.627 109.233 57.9483C108.784 58.2697 108.68 58.8943 109.001 59.3435L110.628 58.1798ZM105.653 54.663C105.974 55.1122 106.599 55.2158 107.048 54.8944C107.497 54.5731 107.601 53.9485 107.28 53.4993L105.653 54.663ZM103.574 48.7106C103.221 48.2859 102.591 48.2277 102.166 48.5807C101.741 48.9337 101.683 49.5642 102.036 49.9889L103.574 48.7106ZM98.0617 45.2067C98.4147 45.6315 99.0452 45.6896 99.4699 45.3367C99.8947 44.9837 99.9529 44.3532 99.5999 43.9284L98.0617 45.2067ZM93.5695 37.008C93.2017 36.596 92.5695 36.5603 92.1576 36.9281C91.7456 37.2959 91.7098 37.9281 92.0777 38.34L93.5695 37.008ZM84.0374 29.3352C84.4052 29.7472 85.0374 29.7829 85.4493 29.4151C85.8613 29.0473 85.8971 28.4151 85.5292 28.0031L84.0374 29.3352ZM79.3106 23.0269C78.7607 22.9756 78.2733 23.3798 78.222 23.9297C78.1708 24.4796 78.575 24.967 79.1249 25.0183L79.3106 23.0269ZM76.034 24.73C76.5839 24.7813 77.0712 24.3771 77.1225 23.8272C77.1738 23.2773 76.7696 22.7899 76.2197 22.7387L76.034 24.73ZM73.1083 22.4663C72.5578 22.4213 72.0751 22.831 72.03 23.3815C71.985 23.9319 72.3947 24.4146 72.9452 24.4597L73.1083 22.4663ZM69.8358 24.2053C70.3862 24.2503 70.869 23.8406 70.914 23.2902C70.959 22.7397 70.5493 22.257 69.9989 22.212L69.8358 24.2053ZM66.8841 21.9656C66.3334 21.9236 65.8529 22.3359 65.8108 22.8866C65.7688 23.4373 66.1811 23.9178 66.7318 23.9598L66.8841 21.9656ZM63.6224 23.7224C64.1731 23.7644 64.6536 23.3521 64.6956 22.8014C64.7377 22.2508 64.3254 21.7703 63.7747 21.7282L63.6224 23.7224ZM60.6152 20.3341C60.1609 20.02 59.538 20.1337 59.2239 20.588C58.9099 21.0423 59.0236 21.6652 59.4779 21.9792L60.6152 20.3341ZM55.2832 19.0794C55.7375 19.3935 56.3603 19.2798 56.6744 18.8255C56.9885 18.3712 56.8748 17.7483 56.4205 17.4342L55.2832 19.0794ZM52.2319 14.5494C51.7765 14.2369 51.1541 14.3528 50.8416 14.8081C50.5291 15.2635 50.645 15.886 51.1003 16.1985L52.2319 14.5494ZM46.9237 13.3325C47.3791 13.645 48.0015 13.5292 48.314 13.0738C48.6265 12.6184 48.5106 11.9959 48.0552 11.6834L46.9237 13.3325ZM43.874 8.83131C43.4169 8.52136 42.795 8.64066 42.4851 9.09777C42.1751 9.55488 42.2944 10.1767 42.7516 10.4867L43.874 8.83131ZM38.5749 7.65461C39.032 7.96456 39.6538 7.84526 39.9637 7.38815C40.2737 6.93104 40.1544 6.30921 39.6973 5.99926L38.5749 7.65461ZM35.4137 4.0273C34.8743 3.90858 34.3408 4.24959 34.2221 4.78896C34.1034 5.32833 34.4444 5.86183 34.9837 5.98055L35.4137 4.0273ZM31.2857 5.16657C31.8251 5.28529 32.3585 4.94428 32.4773 4.40491C32.596 3.86554 32.255 3.33205 31.7156 3.21333L31.2857 5.16657ZM27.8196 2.521C27.2725 2.44559 26.7678 2.82798 26.6924 3.37509C26.617 3.92221 26.9994 4.42686 27.5465 4.50227L27.8196 2.521ZM23.6094 3.95961C24.1565 4.03502 24.6612 3.65263 24.7366 3.10552C24.812 2.55841 24.4296 2.05375 23.8825 1.97834L23.6094 3.95961ZM19.7954 1.4006C19.2488 1.32155 18.7416 1.70057 18.6626 2.24717C18.5835 2.79376 18.9626 3.30095 19.5091 3.38001L19.7954 1.4006ZM15.2589 2.76531C15.8055 2.84436 16.3127 2.46534 16.3918 1.91875C16.4708 1.37215 16.0918 0.864959 15.5452 0.785907L15.2589 2.76531ZM12.0944 4.80786C12.0645 5.35933 12.4873 5.83064 13.0388 5.86054C13.5902 5.89045 14.0615 5.46764 14.0915 4.91616L12.0944 4.80786ZM13.7233 11.7037C13.7533 11.1522 13.3304 10.6809 12.779 10.651C12.2275 10.6211 11.7562 11.0439 11.7263 11.5954L13.7233 11.7037ZM11.7174 17.995C11.7507 18.5463 12.2246 18.9661 12.7759 18.9328C13.3272 18.8995 13.7471 18.4256 13.7137 17.8743L11.7174 17.995ZM14.0633 23.657C14.03 23.1057 13.5561 22.6859 13.0048 22.7192C12.4535 22.7525 12.0337 23.2264 12.067 23.7777L14.0633 23.657ZM12.8422 30.3493C12.9318 30.8943 13.4463 31.2634 13.9913 31.1737C14.5362 31.084 14.9053 30.5695 14.8156 30.0245L12.8422 30.3493ZM15.9934 37.181C15.9037 36.636 15.3893 36.2669 14.8443 36.3566C14.2994 36.4463 13.9303 36.9608 14.02 37.5058L15.9934 37.181ZM14.7338 45.9433C14.749 46.4954 15.2089 46.9306 15.761 46.9154C16.3131 46.9002 16.7483 46.4403 16.733 45.8882L14.7338 45.9433ZM17.0086 55.8766C16.9934 55.3245 16.5335 54.8893 15.9814 54.9046C15.4293 54.9198 14.9941 55.3797 15.0094 55.9318L17.0086 55.8766ZM15.1286 64.4884C15.1257 65.0407 15.5712 65.4907 16.1235 65.4935C16.6757 65.4963 17.1257 65.0509 17.1285 64.4986L15.1286 64.4884ZM17.092 71.6889C17.0948 71.1366 16.6494 70.6866 16.0971 70.6838C15.5448 70.681 15.0948 71.1264 15.092 71.6787L17.092 71.6889ZM14.6184 77.9115C14.5271 78.4562 14.8946 78.9718 15.4393 79.0631C15.984 79.1545 16.4995 78.7869 16.5909 78.2423L14.6184 77.9115ZM15.6526 83.8383C15.7439 83.2936 15.3764 82.778 14.8317 82.6867C14.287 82.5954 13.7715 82.9629 13.6801 83.5076L15.6526 83.8383ZM12.1391 88.7016C11.9192 89.2082 12.1517 89.7972 12.6583 90.017C13.1649 90.2369 13.7539 90.0044 13.9737 89.4978L12.1391 88.7016ZM11.6921 94.7553C11.912 94.2487 11.6795 93.6597 11.1729 93.4399C10.6662 93.22 10.0773 93.4525 9.85741 93.9591L11.6921 94.7553ZM6.69257 99.5163C6.38086 99.9722 6.49776 100.595 6.95368 100.906C7.40959 101.218 8.03187 101.101 8.34358 100.645L6.69257 99.5163ZM4.11187 106.835C4.42358 106.379 4.30668 105.756 3.85076 105.445C3.39485 105.133 2.77257 105.25 2.46086 105.706L4.11187 106.835ZM0.645404 110.946C0.820794 111.47 1.38752 111.752 1.91121 111.576C2.43491 111.401 2.71726 110.834 2.54187 110.311L0.645404 110.946ZM3.38811 112.837C3.21272 112.314 2.646 112.031 2.12231 112.207C1.59861 112.382 1.31625 112.949 1.49165 113.473L3.38811 112.837ZM2.33571 116.026C2.50704 116.551 3.07156 116.838 3.5966 116.666C4.12164 116.495 4.40837 115.931 4.23703 115.406L2.33571 116.026ZM5.08378 118C4.91245 117.475 4.34793 117.189 3.82289 117.36C3.29785 117.531 3.01112 118.096 3.18245 118.621L5.08378 118ZM4.02889 121.215C4.20014 121.74 4.7646 122.027 5.28967 121.856C5.81474 121.685 6.10157 121.12 5.93033 120.595L4.02889 121.215ZM6.77657 123.19C6.60533 122.665 6.04086 122.378 5.51579 122.549C4.99073 122.721 4.70389 123.285 4.87514 123.81L6.77657 123.19ZM5.69358 130.581C5.73619 131.132 6.21712 131.543 6.76776 131.501C7.3184 131.458 7.73023 130.977 7.68761 130.427L5.69358 130.581ZM8.57086 141.839C8.52825 141.288 8.04732 140.877 7.49668 140.919C6.94604 140.962 6.53421 141.443 6.57682 141.993L8.57086 141.839ZM7.78626 151.062C7.91098 151.6 8.44823 151.935 8.98625 151.81C9.52427 151.686 9.85932 151.148 9.7346 150.61L7.78626 151.062ZM11.2245 157.038C11.0998 156.5 10.5626 156.165 10.0245 156.289C9.48652 156.414 9.15147 156.951 9.27619 157.489L11.2245 157.038ZM11.6182 162.495C12.0115 162.883 12.6447 162.879 13.0324 162.485C13.4201 162.092 13.4155 161.459 13.0222 161.071L11.6182 162.495ZM15.6719 163.683C15.2786 163.295 14.6454 163.3 14.2577 163.693C13.8701 164.086 13.8746 164.719 14.268 165.107L15.6719 163.683ZM18.461 166.751C19.0132 166.764 19.4711 166.327 19.4839 165.775C19.4967 165.223 19.0595 164.765 18.5074 164.752L18.461 166.751ZM22.8861 164.853C22.334 164.841 21.876 165.278 21.8632 165.83C21.8504 166.382 22.2876 166.84 22.8398 166.853L22.8861 164.853ZM28.5716 166.277C29.1149 166.178 29.4748 165.657 29.3755 165.114C29.2762 164.57 28.7552 164.21 28.2119 164.31L28.5716 166.277ZM34.8908 163.089C34.3476 163.188 33.9877 163.709 34.087 164.252C34.1863 164.796 34.7072 165.156 35.2505 165.056L34.8908 163.089ZM37.6078 164.721C37.6993 165.266 38.215 165.633 38.7597 165.542C39.3043 165.45 39.6716 164.935 39.5801 164.39L37.6078 164.721ZM39.9477 166.577C39.8562 166.033 39.3404 165.665 38.7958 165.757C38.2511 165.848 37.8838 166.364 37.9754 166.909L39.9477 166.577ZM38.1826 168.981C38.2009 169.533 38.6632 169.965 39.2152 169.947C39.7671 169.929 40.1998 169.467 40.1815 168.915L38.1826 168.981ZM40.2551 171.136C40.2368 170.584 39.7745 170.152 39.2225 170.17C38.6706 170.188 38.2379 170.65 38.2561 171.202L40.2551 171.136ZM38.4195 173.385C38.4862 173.933 38.9848 174.323 39.533 174.257C40.0813 174.19 40.4716 173.691 40.4048 173.143L38.4195 173.385ZM40.6444 175.11C40.5776 174.562 40.0791 174.172 39.5308 174.239C38.9826 174.305 38.5923 174.804 38.659 175.352L40.6444 175.11ZM41.766 178.197C42.2706 178.421 42.8616 178.194 43.0861 177.69C43.3106 177.185 43.0835 176.594 42.5789 176.369L41.766 178.197ZM47.3808 178.506C46.8762 178.281 46.2851 178.508 46.0606 179.013C45.8362 179.518 46.0632 180.109 46.5678 180.333L47.3808 178.506ZM51.3775 182.477C51.8817 182.703 52.4731 182.477 52.6984 181.972C52.9237 181.468 52.6976 180.877 52.1934 180.651L51.3775 182.477ZM57.0137 182.805C56.5095 182.58 55.9181 182.806 55.6928 183.31C55.4675 183.815 55.6936 184.406 56.1979 184.631L57.0137 182.805ZM61.0234 186.8C61.5267 187.028 62.1191 186.804 62.3466 186.301C62.5741 185.798 62.3506 185.205 61.8474 184.978L61.0234 186.8ZM66.6863 187.166C66.183 186.938 65.5906 187.162 65.3631 187.665C65.1356 188.168 65.3591 188.761 65.8623 188.988L66.6863 187.166ZM68.0028 189.383L71.5996 190.46L72.1732 188.544L68.5764 187.467L68.0028 189.383ZM78.7932 192.613L82.3899 193.689L82.9635 191.773L79.3667 190.697L78.7932 192.613ZM82.3011 193.658L85.8797 195.108L86.6308 193.255L83.0523 191.805L82.3011 193.658ZM93.0367 198.009L96.6152 199.459L97.3663 197.605L93.7878 196.155L93.0367 198.009ZM96.5436 199.426L100.343 201.326L101.237 199.537L97.4379 197.638L96.5436 199.426ZM107.942 205.124L111.741 207.024L112.635 205.235L108.836 203.335L107.942 205.124ZM112.599 207.041L115.157 205.888L114.335 204.065L111.777 205.218L112.599 207.041ZM120.272 203.581L122.829 202.428L122.007 200.605L119.449 201.758L120.272 203.581ZM123.035 202.304L125.362 200.481L124.129 198.906L121.801 200.729L123.035 202.304ZM130.017 196.835L132.344 195.012L131.111 193.437L128.784 195.26L130.017 196.835ZM132.332 195.021L134.734 193.198L133.524 191.605L131.123 193.428L132.332 195.021ZM139.536 189.552L141.937 187.728L140.728 186.136L138.327 187.959L139.536 189.552ZM141.625 187.888L143.317 187.371L142.733 185.458L141.04 185.976L141.625 187.888ZM146.702 186.337L148.395 185.82L147.81 183.907L146.118 184.424L146.702 186.337ZM148.377 185.825L150.125 185.324L149.575 183.402L147.827 183.902L148.377 185.825ZM153.621 184.324L155.369 183.824L154.819 181.901L153.071 182.401L153.621 184.324ZM155.333 183.833L157.076 183.405L156.599 181.463L154.856 181.891L155.333 183.833ZM160.563 182.549L162.306 182.121L161.829 180.178L160.086 180.607L160.563 182.549ZM163.059 181.017L162.511 176.909L160.529 177.173L161.076 181.282L163.059 181.017ZM161.416 168.693L160.869 164.585L158.886 164.849L159.434 168.957L161.416 168.693ZM160.831 164.415L160.196 162.414L158.29 163.018L158.924 165.019L160.831 164.415ZM158.927 158.411L158.292 156.41L156.386 157.015L157.02 159.016L158.927 158.411ZM158.113 156.079L156.42 154.01L154.872 155.277L156.565 157.346L158.113 156.079ZM153.035 149.872L151.342 147.803L149.794 149.07L151.487 151.139L153.035 149.872ZM151.042 147.556L148.015 145.928L147.068 147.689L150.094 149.317L151.042 147.556ZM141.962 142.672L138.935 141.044L137.988 142.806L141.015 144.434L141.962 142.672ZM139.155 141.205L137.095 139.221L135.707 140.661L137.768 142.645L139.155 141.205ZM132.973 135.252L130.913 133.268L129.526 134.709L131.586 136.693L132.973 135.252ZM131.183 133.724L129.997 129.408L128.068 129.938L129.255 134.254L131.183 133.724ZM127.624 120.776L126.437 116.46L124.509 116.99L125.695 121.306L127.624 120.776ZM126.151 115.99L125.838 115.702L124.482 117.172L124.795 117.46L126.151 115.99ZM125.212 115.125L124.899 114.836L123.544 116.306L123.856 116.595L125.212 115.125ZM124.899 114.836L124.586 114.548L123.231 116.019L123.544 116.307L124.899 114.836ZM123.961 113.971L123.648 113.683L122.293 115.154L122.605 115.442L123.961 113.971ZM123.659 113.693L123.355 113.405L121.978 114.855L122.282 115.144L123.659 113.693ZM122.748 112.829L122.444 112.54L121.067 113.991L121.371 114.279L122.748 112.829ZM122.756 113.266V112.977H120.756V113.266H122.756ZM122.756 112.401V112.113H120.756V112.401H122.756ZM122.756 112.113V111.816H120.756V112.113H122.756ZM122.756 111.222V110.925H120.756V111.222H122.756ZM122.756 110.925V110.637H120.756V110.925H122.756ZM122.756 110.06V109.772H120.756V110.06H122.756ZM122.337 110.586L122.705 110.323L121.543 108.695L121.175 108.958L122.337 110.586ZM123.441 109.798L123.809 109.535L122.647 107.907L122.279 108.17L123.441 109.798ZM123.351 109.713L123.764 109.662L123.52 107.677L123.106 107.728L123.351 109.713ZM124.592 109.56L125.006 109.509L124.761 107.524L124.348 107.575L124.592 109.56ZM124.737 109.506L125.592 109.633L125.886 107.655L125.031 107.528L124.737 109.506ZM127.303 109.888L128.159 110.015L128.453 108.037L127.597 107.91L127.303 109.888ZM129.299 108.91L128.848 105.06L126.862 105.293L127.312 109.142L129.299 108.91ZM127.947 97.3614L127.496 93.512L125.51 93.7445L125.961 97.594L127.947 97.3614ZM127.377 93.1413L126.355 91.3097L124.608 92.2837L125.63 94.1153L127.377 93.1413ZM124.313 87.6465L123.291 85.8149L121.545 86.7889L122.566 88.6205L124.313 87.6465ZM122.858 85.4039L120.954 84.4712L120.074 86.2673L121.978 87.2L122.858 85.4039ZM117.145 82.6059L115.241 81.6732L114.361 83.4693L116.265 84.402L117.145 82.6059ZM115.754 82.8723L116.638 80.074L114.73 79.472L113.847 82.2703L115.754 82.8723ZM118.404 74.4775L119.287 71.6793L117.38 71.0772L116.497 73.8755L118.404 74.4775ZM119.321 71.2188L119.091 69.7944L117.117 70.1133L117.347 71.5377L119.321 71.2188ZM118.631 66.9457L118.401 65.5213L116.426 65.8402L116.656 67.2646L118.631 66.9457ZM118.025 64.8895L116.544 63.7448L115.321 65.3273L116.802 66.472L118.025 64.8895ZM113.582 61.4554L112.1 60.3106L110.877 61.8931L112.359 63.0378L113.582 61.4554ZM112.302 60.52L110.628 58.1798L109.001 59.3435L110.676 61.6837L112.302 60.52ZM107.28 53.4993L105.605 51.1591L103.979 52.3227L105.653 54.663L107.28 53.4993ZM105.561 51.1018L103.574 48.7106L102.036 49.9889L104.023 52.38L105.561 51.1018ZM99.5999 43.9284L97.6128 41.5373L96.0746 42.8156L98.0617 45.2067L99.5999 43.9284ZM97.5897 41.5104L93.5695 37.008L92.0777 38.34L96.0978 42.8425L97.5897 41.5104ZM85.5292 28.0031L81.5091 23.5007L80.0172 24.8328L84.0374 29.3352L85.5292 28.0031ZM80.856 23.1711L79.3106 23.0269L79.1249 25.0183L80.6703 25.1624L80.856 23.1711ZM76.2197 22.7387L74.6743 22.5945L74.4886 24.5859L76.034 24.73L76.2197 22.7387ZM74.663 22.5935L73.1083 22.4663L72.9452 24.4597L74.4999 24.5869L74.663 22.5935ZM69.9989 22.212L68.4442 22.0848L68.2811 24.0781L69.8358 24.2053L69.9989 22.212ZM68.4388 22.0843L66.8841 21.9656L66.7318 23.9598L68.2865 24.0785L68.4388 22.0843ZM63.7747 21.7282L62.22 21.6095L62.0677 23.6037L63.6224 23.7224L63.7747 21.7282ZM62.7125 21.784L60.6152 20.3341L59.4779 21.9792L61.5752 23.4292L62.7125 21.784ZM56.4205 17.4342L54.3231 15.9843L53.1858 17.6295L55.2832 19.0794L56.4205 17.4342ZM54.3203 15.9823L52.2319 14.5494L51.1003 16.1985L53.1887 17.6315L54.3203 15.9823ZM48.0552 11.6834L45.9669 10.2505L44.8353 11.8996L46.9237 13.3325L48.0552 11.6834ZM45.9623 10.2473L43.874 8.83131L42.7516 10.4867L44.8399 11.9027L45.9623 10.2473ZM39.6973 5.99926L37.6089 4.58324L36.4865 6.23858L38.5749 7.65461L39.6973 5.99926ZM37.2627 4.43429L35.4137 4.0273L34.9837 5.98055L36.8328 6.38753L37.2627 4.43429ZM31.7156 3.21333L29.8666 2.80634L29.4366 4.75958L31.2857 5.16657L31.7156 3.21333ZM29.7882 2.79232L27.8196 2.521L27.5465 4.50227L29.5151 4.77359L29.7882 2.79232ZM23.8825 1.97834L21.9139 1.70702L21.6409 3.68829L23.6094 3.95961L23.8825 1.97834ZM21.9205 1.70795L19.7954 1.4006L19.5091 3.38001L21.6343 3.68736L21.9205 1.70795ZM15.5452 0.785907L13.4201 0.478559L13.1338 2.45796L15.2589 2.76531L15.5452 0.785907ZM12.2784 1.41411L12.0944 4.80786L14.0915 4.91616L14.2755 1.52242L12.2784 1.41411ZM11.7263 11.5954L11.5422 14.9891L13.5393 15.0974L13.7233 11.7037L11.7263 11.5954ZM11.5426 15.1036L11.7174 17.995L13.7137 17.8743L13.5389 14.9829L11.5426 15.1036ZM12.067 23.7777L12.2418 26.6691L14.2381 26.5484L14.0633 23.657L12.067 23.7777ZM12.2532 26.7711L12.8422 30.3493L14.8156 30.0245L14.2267 26.4463L12.2532 26.7711ZM14.02 37.5058L14.6089 41.084L16.5824 40.7592L15.9934 37.181L14.02 37.5058ZM14.596 40.9491L14.7338 45.9433L16.733 45.8882L16.5952 40.894L14.596 40.9491ZM15.0094 55.9318L15.1472 60.926L17.1464 60.8708L17.0086 55.8766L15.0094 55.9318ZM15.1468 60.8933L15.1286 64.4884L17.1285 64.4986L17.1468 60.9035L15.1468 60.8933ZM15.092 71.6787L15.0738 75.2738L17.0738 75.284L17.092 71.6889L15.092 71.6787ZM15.0875 75.1135L14.6184 77.9115L16.5909 78.2423L17.06 75.4443L15.0875 75.1135ZM13.6801 83.5076L13.211 86.3056L15.1835 86.6363L15.6526 83.8383L13.6801 83.5076ZM13.2799 86.0728L12.1391 88.7016L13.9737 89.4978L15.1146 86.869L13.2799 86.0728ZM9.85741 93.9591L8.71658 96.5879L10.5513 97.3841L11.6921 94.7553L9.85741 93.9591ZM8.80842 96.4216L6.69257 99.5163L8.34358 100.645L10.4594 97.5504L8.80842 96.4216ZM2.46086 105.706L0.345012 108.8L1.99602 109.929L4.11187 106.835L2.46086 105.706ZM0.222283 109.682L0.645404 110.946L2.54187 110.311L2.11875 109.047L0.222283 109.682ZM1.49165 113.473L1.91477 114.736L3.81123 114.101L3.38811 112.837L1.49165 113.473ZM1.91234 114.729L2.33571 116.026L4.23703 115.406L3.81366 114.108L1.91234 114.729ZM3.18245 118.621L3.60583 119.918L5.50715 119.298L5.08378 118L3.18245 118.621ZM3.60577 119.918L4.02889 121.215L5.93033 120.595L5.50721 119.298L3.60577 119.918ZM4.87514 123.81L5.29826 125.108L7.19969 124.487L6.77657 123.19L4.87514 123.81ZM5.25195 124.875L5.69358 130.581L7.68761 130.427L7.24599 124.72L5.25195 124.875ZM6.57682 141.993L7.01845 147.7L9.01249 147.545L8.57086 141.839L6.57682 141.993ZM7.0413 147.848L7.78626 151.062L9.7346 150.61L8.98964 147.397L7.0413 147.848ZM9.27619 157.489L10.0211 160.703L11.9695 160.252L11.2245 157.038L9.27619 157.489ZM10.2933 161.19L11.6182 162.495L13.0222 161.071L11.6973 159.765L10.2933 161.19ZM14.268 165.107L15.5928 166.413L16.9968 164.989L15.6719 163.683L14.268 165.107ZM16.2716 166.701L18.461 166.751L18.5074 164.752L16.318 164.701L16.2716 166.701ZM22.8398 166.853L25.0291 166.904L25.0755 164.904L22.8861 164.853L22.8398 166.853ZM25.2321 166.888L28.5716 166.277L28.2119 164.31L24.8725 164.92L25.2321 166.888ZM35.2505 165.056L38.5899 164.446L38.2303 162.478L34.8908 163.089L35.2505 165.056ZM37.4239 163.628L37.6078 164.721L39.5801 164.39L39.3963 163.296L37.4239 163.628ZM37.9754 166.909L38.1592 168.002L40.1315 167.671L39.9477 166.577L37.9754 166.909ZM38.1459 167.87L38.1826 168.981L40.1815 168.915L40.1448 167.804L38.1459 167.87ZM38.2561 171.202L38.2929 172.313L40.2918 172.247L40.2551 171.136L38.2561 171.202ZM38.2997 172.401L38.4195 173.385L40.4048 173.143L40.285 172.159L38.2997 172.401ZM38.659 175.352L38.7788 176.336L40.7642 176.094L40.6444 175.11L38.659 175.352ZM39.365 177.129L41.766 178.197L42.5789 176.369L40.178 175.301L39.365 177.129ZM46.5678 180.333L48.9688 181.401L49.7817 179.574L47.3808 178.506L46.5678 180.333ZM48.9673 181.401L51.3775 182.477L52.1934 180.651L49.7832 179.575L48.9673 181.401ZM56.1979 184.631L58.608 185.708L59.4239 183.882L57.0137 182.805L56.1979 184.631ZM58.604 185.706L61.0234 186.8L61.8474 184.978L59.428 183.884L58.604 185.706ZM65.8623 188.988L68.2817 190.082L69.1057 188.26L66.6863 187.166L65.8623 188.988Z" fill="#CDCDCD"/>
</svg>
