<svg width="178" height="117" viewBox="0 0 178 117" fill="none" xmlns="http://www.w3.org/2000/svg">
<path fill-rule="evenodd" clip-rule="evenodd" d="M62.6843 1.29541L71.718 5.12805L84.8916 9.2997L102.812 15.0312L111.312 21.5436L112.895 29.1069L110.834 48.4732L112.011 50.644L113.373 52.9158L114.992 55.2566L122.498 54.1027L128.276 49.7621L134.053 39.994L141.265 44.7766L148.956 48.7102L156.463 45.0135V42.1308V39.248L156.229 36.5003L163.38 36.3643L169.82 37.3482L176.002 42.5038L174.861 46.8114L173.721 52.1019L172.027 56.2905C170.788 58.9003 170.173 61.765 169.561 64.6298C169.009 67.8155 168.457 71.0022 167.905 74.188C167.304 76.4358 166.704 78.6835 166.104 80.9313C163.147 83.2711 160.191 85.6119 157.235 87.9517C154.291 88.3027 151.348 88.6526 148.404 89.0036C145.485 88.8676 142.565 88.7316 139.646 88.5966C136.812 89.5006 133.98 90.4055 131.146 91.3094C128.398 94.7461 125.651 98.1828 122.903 101.621C122.915 103.071 122.929 104.522 122.939 105.974C122.841 107.59 122.742 109.207 122.645 110.824C122.658 112.301 122.67 113.777 122.664 115.085L118.708 113.999L114.329 112.982L109.399 111.863L97.8811 109.252L87.9825 110.574L77.4953 114.881L71.5709 108.811L65.9041 98.2288L61.8196 89.6476L46.2175 80.9313L31.1306 77.3696L16.1907 82.6952L10.4504 89.3766L8.3529 90.6314L7.46976 91.2414L4.1212 87.9857L2.53892 85.476L1.39819 81.7113L7.46976 71.4682L14.0197 62.8879L20.496 53.7297L22.2623 32.8036L26.2365 23.0695L35.767 11.5715L44.8192 10.4526L54.3129 8.04481L62.6843 1.29541Z" fill="#F2F2F2" stroke="#CDCDCD" stroke-width="2" stroke-linecap="round" stroke-linejoin="round" stroke-dasharray="10 10"/>
</svg>
