<svg width="156" height="88" viewBox="0 0 156 88" fill="none" xmlns="http://www.w3.org/2000/svg">
<path fill-rule="evenodd" clip-rule="evenodd" d="M115.084 85.7655L102.811 76.9603L93.2805 77.2652L81.5062 83.9126H66.64L52.2149 82.5558L37.4597 85.0995L23.7338 86.5244L14.6812 83.5057L5.62962 69.3969L5.51858 65.4963L4.93042 62.6135L3.31095 58.1699L2.64878 57.153L2.17063 55.6261L1.93156 53.5153L3.31095 52.2345L4.26823 50.4376L5.07746 47.9278L17.0369 42.8403L23.8808 33.1742L27.4508 12.96L34.1477 8.14337L40.6976 4.14174L47.9837 1.56396L62.0767 7.02448L76.8329 10.3822L91.9562 13.6039L107.153 18.7594L106.638 21.8791L106.16 25.0339L105.682 28.2216L112.784 33.6151L119.223 36.5999L127.686 36.9388L127.797 38.4987L127.944 40.2285L128.091 41.9584L133.022 45.892L137.99 49.8607L142.921 53.9643L146.748 59.2558L150.612 64.1054L154.567 68.659L142.111 77.3672L126.914 82.9297L115.084 85.7655Z" fill="#F2F2F2" stroke="#CDCDCD" stroke-width="2" stroke-linecap="round" stroke-linejoin="round" stroke-dasharray="10 10"/>
</svg>
