<svg width="324" height="281" viewBox="0 0 324 281" fill="none" xmlns="http://www.w3.org/2000/svg">
<path fill-rule="evenodd" clip-rule="evenodd" d="M35.8104 190.954L29.8492 191.022L27.3838 193.735L25.5807 202.927L23.4097 204.148L17.0437 204.385L1 203.91L2.83988 196.177L5.30531 190.004L8.46988 183.425L9.537 183.865L10.6041 184.374L11.5977 184.95L16.2341 178.642L20.9075 172.436L25.5807 166.195L37.4663 156.732L48.9839 146.625L60.3543 136.077L71.6143 125.122L82.8375 113.998L94.1711 102.771L105.726 91.6125L115.329 90.9002L125.338 89.1027L134.501 83.0994L133.913 80.7931L133.287 78.4868L132.734 76.1465L140.61 60.9859L151.208 49.8274L163.35 41.6535L175.604 35.345L186.68 29.9184L195.07 20.5235L203.497 11.1964L211.923 1.90332L221.049 9.02581L230.248 13.8419L240.698 17.9458L242.134 22.9655L243.091 25.6109L244.489 28.2225L246.66 28.8669L250.376 29.4096L254.277 29.4691L253.541 43.0441L254.24 54.6096L256.595 68.9223L257.147 88.8991L257.074 103.28L255.196 114.473L250.634 124.987L242.171 137.366L243.863 142.419L245.555 147.609L247.248 152.798L249.014 175.623L251.995 188.478L257.294 193.702L266.052 193.905L279.409 191.463L280.145 195.837L280.292 200.281L280.771 204.216L290.375 208.488L300.016 212.796L309.988 217.172L318.782 228.263L322.72 241.591L321.616 256.718L314.956 273.338L299.427 268.08L283.862 262.145L268.37 256.243L252.769 250.885L239.742 252.41L225.612 260.246L218.988 279.306L202.539 277.136L186.018 275.643L170.894 269.606L167.545 260.381L164.196 256.616L158.788 253.564L151.465 242.609L147.932 238.166L145.356 236.368L144.032 238.946L143.369 240.777L142.964 243.321L135.715 239.048L129.312 234.231L123.389 228.67L118.31 215.374L109.737 203.842L104.364 190.174L115.035 197.839L126.516 209.574L136.414 211.473V206.826V202.248V197.737L128.172 190.581L121.732 184.475L116.434 173.758L122.431 170.299L128.871 172.233L136.01 174.742L141.088 165.516L142.339 157.953L137.887 149L128.687 153.273L119.525 157.546L110.362 161.751L98.4764 172.266L88.3204 182.034L79.0474 190.242L69.9584 196.007L60.2071 198.619L49.0943 197.228L35.8104 190.954Z" fill="#F2F2F2" stroke="#CDCDCD" stroke-width="2" stroke-linecap="round" stroke-linejoin="round" stroke-dasharray="10 10"/>
</svg>
