<svg width="291" height="268" viewBox="0 0 291 268" fill="none" xmlns="http://www.w3.org/2000/svg">
<path fill-rule="evenodd" clip-rule="evenodd" d="M170.829 255.543L186.007 264.735L203.265 266.363L219.935 265.718L219.677 262.191V258.02V254.39L227.441 241.603L231.636 228.004L235.426 209.926L239.953 194.257L240.909 180.351L239.033 167.496L235.132 155.117L229.944 142.703L224.314 129.509L237.23 116.485L247.46 113.298L262.512 117.571L266.923 111.636L272.115 102.953L273.625 95.1183L271.015 92.812L268.394 90.5396L265.823 88.335L265.523 86.3L265.193 84.299L264.903 82.3657L272.845 74.4292L280.207 68.6973L286.169 59.9808L290 43.1243L279.257 29.3203L271.415 28.8116L261.552 42.1747L254.378 39.6987L248.122 36.1375L241.976 31.9319L242.123 27.7262L243.081 22.8422L245.73 12.9386L244.773 11.6159L243.89 10.2592L242.934 8.90254L232.41 15.3467L220.891 18.874L210.331 19.8915L196.09 10.5305L181.04 4.56123L166.616 1L155.135 9.71654L143.727 16.025L133.534 26.6748L132.283 32.9493L131.033 39.2579L129.781 45.6341L128.383 45.3289L126.948 45.0914L125.586 44.8541L113.48 31.084L100.858 21.6551H87.4273L71.2368 20.502L55.0821 19.3488L38.9655 18.1957L26.0499 23.758L13.0232 28.8116L1.32184 36.9176L7.42959 47.1264L15.1578 53.0957L24.0253 59.1668L34.2922 54.4524L44.8892 52.5192L55.7814 57.6066L55.8924 58.9972L56.0394 60.3878L56.1865 61.8801L51.108 71.5464L46.3246 82.0944L40.8421 93.592L44.6692 95.3558L49.2315 98.4082L52.5064 103.835L50.0407 108.922L48.1282 113.942L47.355 120.793L52.6905 122.93L58.6881 126.965L62.3312 135.513L68.5139 138.294L74.6957 141.109L80.8775 144.026L90.9233 152.81L102.956 154.574L114.989 162.951L114.437 167.225L113.922 171.499L113.48 175.704L118.3 177.095L123.195 178.485L128.015 179.978L125.917 185.539L122.532 187.812L119.073 187.71L124.483 209.112L135.706 222.034L148.806 229.631L158.152 241.773L164.187 249.405L170.829 255.543Z" fill="#F2F2F2" stroke="#CDCDCD" stroke-width="2" stroke-linecap="round" stroke-linejoin="round" stroke-dasharray="10 10"/>
</svg>
