<svg width="334" height="237" viewBox="0 0 334 237" fill="none" xmlns="http://www.w3.org/2000/svg">
<path fill-rule="evenodd" clip-rule="evenodd" d="M130.479 218.083L121.224 222.966L111.767 223.373L102.127 222.322L97.6734 228.801L93.2211 233.107L87.6285 235.991L75.7061 227.546L64.3349 218.049L54.5841 206.857L51.7873 211.13L48.6224 215.878L46.0097 220.423L35.8168 209.774L25.9559 198.276L17.7866 184.641L19.8102 182.097L21.7608 179.587L23.7844 177.111V175.552V174.093V172.635L16.5353 168.429L9.10214 166.122L1.72406 165.14L5.38611 158.559L7.66673 151.301L9.91139 142.89L19.8102 138.142L33.9402 131.053L48.9905 121.963L61.8331 111.144L69.1192 99.0024L69.1922 90.9301L69.3763 82.9599L69.5233 75.0225L65.6232 60.7438L61.7222 46.4651L57.8591 32.3224L66.6905 22.7242L75.0059 25.098L84.3526 35.612L98.1885 40.0887L112.43 41.4795L127.222 42.5644L131.858 37.3419L136.531 32.1864L141.297 26.4379L143.633 27.8448L146.724 29.6426L152.355 32.3224H178.444L196.843 32.2203L210.163 32.0164L221.13 31.5764L232.205 30.8295L246.041 29.8126L247.55 26.5899L249.131 23.4361L250.677 20.3154L249.721 17.4327L248.764 14.5159L247.807 11.6332L255.792 4.13785L265.911 1.76306L275.994 2.374L291.007 11.7352L308.265 13.363L325.192 12.6161L323.941 18.0096L322.653 23.4361L321.402 28.8626L325.229 31.9494L329.093 35.0691L332.993 38.3258L332.846 41.1065L332.662 43.9213L332.588 46.8041L330.049 48.1949L327.658 49.5858L325.082 51.3327C323.808 51.0577 322.638 50.5447 321.47 50.0258C320.969 49.7998 320.468 49.5738 319.967 49.3478C318.789 44.4193 317.612 39.4897 316.435 34.5601C314.619 31.6894 312.804 28.8177 310.988 25.9459C308.253 26.3299 305.518 26.7149 302.783 27.0988C303.914 29.3356 305.05 31.5694 306.18 33.8072C307.329 36.467 308.477 39.1257 309.627 41.7845C310.167 44.8822 310.706 47.98 311.246 51.0777C309.316 51.1017 307.384 51.1207 305.454 51.1477C304.449 51.2977 303.441 51.4367 302.438 51.5926C301.485 51.9976 300.533 52.4026 299.581 52.8075C299.818 53.5005 300.046 54.1984 300.289 54.8883C300.698 55.4793 301.099 56.0752 301.514 56.6622C302.391 57.6381 303.267 58.615 304.144 59.5909C304.057 62.7836 303.975 65.9773 303.884 69.1701C303.505 71.4829 303.125 73.7956 302.746 76.1084C301.69 78.9012 300.636 81.693 299.581 84.4857C297.21 86.0716 294.837 87.6544 292.468 89.2433C290.539 90.8871 288.608 92.527 286.681 94.1718C283.499 97.2636 280.316 100.354 277.134 103.445C273.16 105.084 269.186 106.724 265.212 108.363C262.734 111.087 260.257 113.812 257.779 116.537C256.32 122.992 254.86 129.448 253.401 135.903C252.343 137.505 251.28 139.102 250.243 140.716C249.276 142.22 248.278 143.704 247.292 145.196C243.367 143.218 239.442 141.24 235.517 139.261C231.206 138.73 226.897 138.195 222.586 137.667C218.196 137.609 213.803 137.556 209.413 137.495C205.235 136.953 201.058 136.411 196.88 135.869C193.212 133.89 189.545 131.913 185.877 129.934C185.415 128.202 184.963 126.467 184.478 124.742C184.132 123.47 183.769 122.202 183.402 120.936C183.283 120.521 183.163 120.107 183.044 119.691C179.573 118.527 176.102 117.362 172.63 116.198C169.049 116.65 165.467 117.102 161.885 117.555C159.199 120.528 156.513 123.501 153.826 126.474C153.735 129.218 153.654 131.961 153.543 134.704C153.502 135.866 153.446 137.029 153.415 138.192C153.381 140.018 153.346 141.844 153.311 143.67C151.349 145.309 149.386 146.948 147.424 148.588C145.805 149.142 144.186 149.696 142.566 150.25C140.531 150.307 138.494 150.363 136.458 150.42C135.28 152.03 134.108 153.644 132.913 155.24C132.292 156.072 131.674 156.905 131.073 157.751C130.563 158.461 130.052 159.172 129.54 159.882C130.632 163.986 131.723 168.09 132.815 172.194C134.522 174.434 136.223 176.678 137.934 178.914C140.116 181.728 142.298 184.541 144.48 187.355C143.572 189.593 142.664 191.831 141.757 194.07C140.207 196.063 138.662 198.059 137.111 200.049C135.678 201.482 134.247 202.914 132.815 204.347C132.466 206.008 132.104 207.667 131.763 209.331C131.298 211.649 130.834 213.969 130.352 216.285C130.229 216.884 130.602 217.484 130.479 218.083Z" fill="#F2F2F2" stroke="#CDCDCD" stroke-width="2" stroke-linecap="round" stroke-linejoin="round" stroke-dasharray="10 10"/>
</svg>
