<svg width="151" height="195" viewBox="0 0 151 195" fill="none" xmlns="http://www.w3.org/2000/svg">
<path fill-rule="evenodd" clip-rule="evenodd" d="M70.2028 193.15L65.4004 189.369L60.396 185.333L55.4646 181.432L55.2805 178.516L55.1335 175.633L55.0234 172.716L51.8955 171.562L48.7306 170.409L45.6768 169.257L44.0943 172.716L42.5489 176.209L41.0404 179.669L36.5142 179.296L31.9879 178.991L28.965 178.872L30.9946 159.42L31.4357 146.024L30.0383 135.34L26.5053 123.978L20.5806 108.546L14.0308 96.2001L7.55493 84.0242L1.00507 71.8142L1.85131 64.3869L3.10167 59.8753L5.64139 54.6188V48.4123V41.8659L5.19925 35.7784L6.41359 34.9475L8.14308 34.0656L9.83558 33.1497L17.0486 21.1088L22.9363 18.735L33.0552 19.4129L37.6545 15.2073L42.0337 8.89884L42.3468 1.08154L47.0752 4.52423L50.2401 10.5607L51.6745 19.4129L49.982 21.6177L48.2895 23.8905L46.633 26.1963L55.1335 34.7776L64.3331 39.3221L73.9368 41.4589L83.6516 42.9178L93.3293 45.4956L102.639 50.8201L111.286 60.5883L123.614 62.7921L135.867 65.0648L148.194 67.3716L146.023 78.4617V89.2477L147.238 102.577H145.692H144.11H142.601L143.816 111.87L145.03 121.299L146.281 130.761L147.348 131.779L148.452 132.898L149.556 134.051L148.746 136.053L148.011 138.121L147.238 140.258L145.324 140.834L143.485 141.411L141.644 141.988L141.203 151.857L138.075 157.657L132.74 162.473L126.006 177.227L118.02 182.28L106.65 183.772L96.0891 177.464L85.8232 174.174L76.8076 177.973L70.2028 193.15Z" fill="#F2F2F2" stroke="#CDCDCD" stroke-width="2" stroke-linecap="round" stroke-linejoin="round" stroke-dasharray="10 10"/>
</svg>
