<svg width="261" height="262" viewBox="0 0 261 262" fill="none" xmlns="http://www.w3.org/2000/svg">
<path fill-rule="evenodd" clip-rule="evenodd" d="M1.98255 194.083C2.10558 193.484 2.22861 192.884 2.35265 192.285C2.83379 189.969 3.29893 187.65 3.76406 185.331C4.10516 183.668 4.46629 182.008 4.81539 180.347C6.24679 178.914 7.67921 177.482 9.11061 176.05C10.6621 174.059 12.2075 172.063 13.7569 170.07C14.6652 167.831 15.5724 165.594 16.4807 163.355C14.2981 160.541 12.1164 157.728 9.93482 154.914C8.22334 152.678 6.52287 150.434 4.81539 148.194C3.72407 144.09 2.63172 139.987 1.54041 135.882C2.05155 135.172 2.56272 134.462 3.07386 133.751C3.67403 132.905 4.2932 132.072 4.91337 131.241C6.10871 129.644 7.28005 128.03 8.45839 126.42C10.495 126.363 12.5305 126.307 14.5671 126.25C16.1856 125.696 17.8051 125.142 19.4245 124.588C21.3871 122.949 23.3486 121.309 25.3112 119.671C25.3462 117.844 25.3812 116.018 25.4162 114.192C25.4462 113.029 25.5023 111.866 25.5433 110.704C25.6553 107.962 25.7353 105.218 25.8264 102.475C28.5131 99.5014 31.1988 96.5276 33.8856 93.5549C37.4666 93.1019 41.0487 92.65 44.6307 92.198C48.1017 93.3619 51.5727 94.5268 55.0437 95.6917C55.1637 96.1067 55.2827 96.5216 55.4028 96.9366C55.7699 98.2025 56.132 99.4704 56.4781 100.742C56.9632 102.468 57.4154 104.202 57.8775 105.934C61.5445 107.913 65.2125 109.891 68.8796 111.869C73.0578 112.411 77.236 112.953 81.4132 113.495C85.8044 113.556 90.1957 113.609 94.5869 113.667C98.8971 114.195 103.207 114.73 107.518 115.261C111.443 117.24 115.367 119.218 119.292 121.196C120.279 119.705 121.277 118.221 122.243 116.716C123.281 115.102 124.344 113.505 125.401 111.903C126.86 105.448 128.319 98.9924 129.78 92.537C132.258 89.8122 134.735 87.0875 137.213 84.3627C141.187 82.7239 145.161 81.085 149.135 79.4452C152.317 76.3544 155.499 73.2637 158.681 70.173C160.608 68.5271 162.54 66.8873 164.469 65.2434C166.837 63.6556 169.211 62.0727 171.582 60.4859C172.636 57.6931 173.691 54.9013 174.746 52.1086C175.126 49.7958 175.505 47.483 175.884 45.1702C175.975 41.9775 176.057 38.7838 176.144 35.5911C175.268 34.6152 174.391 33.6382 173.514 32.6623C173.1 32.0754 172.698 31.4794 172.289 30.8885C172.046 30.1985 171.819 29.5006 171.582 28.8077C172.534 28.4027 173.486 27.9977 174.439 27.5928C175.442 27.4378 176.449 27.2978 177.454 27.1478C179.385 27.1208 181.316 27.1018 183.246 27.0778C182.707 23.9801 182.167 20.8824 181.628 17.7846C180.478 15.1259 179.329 12.4671 178.18 9.80735C177.05 7.56954 175.915 5.33576 174.783 3.09896C177.519 2.71499 180.253 2.33001 182.989 1.94604C184.804 4.81779 186.619 7.68953 188.435 10.5613C189.612 15.4898 190.789 20.4194 191.968 25.349C192.469 25.5749 192.969 25.8009 193.47 26.0269C194.638 26.5449 195.809 27.0578 196.972 27.5868L207.901 32.5383L214.782 36.1L222.73 40.7806H228.323L234.616 41.6625L239.992 46.0371L237.262 49.1239L234.653 52.2446L232.003 55.5003L229.942 71.6108L230.384 89.1453L234.395 105.154L249.265 107.02L255.407 108.343L258.057 110.207L258.718 116.177L259.378 122.18L259.968 128.15L255.297 125.843L250.625 123.503L245.984 121.196L245.394 124.351L245.544 129.947L246.534 142.836L241.313 151.179L236.271 157.283L230.237 162.371V163.219V164.135V165.119L232.959 168.781L235.719 172.444L238.552 176.108L235.057 180.041L231.709 184.01L228.323 188.113L228.287 194.965L226.852 200.493L224.533 206.836H218.976H213.384H207.864L205.73 209.583L202.823 213.89L198.48 218.808L190.275 217.011L185.27 218.334L178.904 225.761L170.33 217.045L164.884 218.028L159.254 225.388L150.092 236.004L149.798 239.701L149.504 243.432L149.135 247.23L148.546 247.841L147.884 248.383L147.259 248.994L147.038 251.436L147.443 253.403L148.73 256.489L145.861 257.88L142.917 259.27L139.568 260.492L132.944 257.507L123.23 252.895L111.602 247.739L99.1642 243.364L87.1678 240.956L76.6438 241.702L68.8066 246.857L64.7584 257.676L57.6204 254.15L51.6957 248.756L45.808 242.788L36.5354 240.379L32.4132 238.887L29.9485 236.987L22.8095 219.317L12.2485 204.292L1.98255 194.083Z" fill="#F2F2F2" stroke="#CDCDCD" stroke-width="2" stroke-linecap="round" stroke-linejoin="round" stroke-dasharray="10 10"/>
</svg>
