<svg width="113" height="159" viewBox="0 0 113 159" fill="none" xmlns="http://www.w3.org/2000/svg">
<path fill-rule="evenodd" clip-rule="evenodd" d="M20.0278 144.291L21.7203 140.102L22.8617 134.811L24.002 130.504L17.8202 125.348L11.3804 124.364L4.22936 124.5L3.50615 122.736L2.54888 121.041L1.62962 119.277L2.54888 117.548L3.50615 115.852L4.46243 114.257L11.0863 116.021L16.5329 116.666L25.3634 116.767L25.9896 113.952V110.358L25.3634 103.031L21.9044 85.9718L20.9851 70.6411L22.2725 56.4304L25.1793 42.8976L29.3015 29.5008L34.1949 15.696L33.8638 13.7292L33.5697 11.7963L33.4597 10.1005L48.2149 7.55672L62.64 8.91259H77.5062L89.2806 2.2652L98.8113 1.96021L111.065 10.6424L109.151 22.6834L108.232 34.4183L109.151 48.1541L109.078 60.432L108.747 66.2655L107.79 70.5731L101.277 80.2733L94.8001 91.0923L90.3479 102.539L90.2378 105.914L90.3849 109.611L90.5689 113.274L97.1188 116.394L104.074 118.531L109.703 125.246L107.165 130.673L104.662 136.167L102.233 141.73L95.8674 140.543L91.4892 141.12L86.7418 145.766L81.8114 146.342L76.88 146.919L71.9496 147.496L69.0428 150.989L66.172 154.992L63.5222 157.772L48.2149 153.872L36.8076 150.345L20.0278 144.291Z" fill="#F2F2F2" stroke="#CDCDCD" stroke-width="2" stroke-linecap="round" stroke-linejoin="round" stroke-dasharray="10 10"/>
</svg>
