<svg width="128" height="159" viewBox="0 0 128 159" fill="none" xmlns="http://www.w3.org/2000/svg">
<path fill-rule="evenodd" clip-rule="evenodd" d="M86.1808 157.81L88.3154 156.64L90.486 154.707L92.5466 153.418L102.187 135.748L111.461 124.759L124.561 118.043L122.721 116.618L120.66 115.262L118.599 114.007L118.71 112.481L118.857 110.955L119.004 109.564L121.654 106.443L124.303 103.391L126.989 100.271L126.511 96.8112L125.996 93.3855L125.554 90.0278L120.108 81.3115L118.342 70.6615L117.643 57.5697L109.879 55.1619L106.788 49.5994L105.573 36.8805L103.954 33.9637L102.445 31.149L100.937 28.3672L100.054 17.7862L97.8091 9.20494L95.0673 1.14966L88.0943 2.8625L81.1023 4.86333L74.3324 6.93215L64.7277 14.2245L55.418 21.5169L45.1881 26.1294L29.9908 18.5321L15.6767 12.7326L1.78577 8.79798L10.7833 20.262L14.7204 33.5908L13.6161 48.7174L6.95624 65.337L16.67 68.7627L26.3848 71.4074L36.1365 73.6122L35.6584 77.7498L34.186 84.8052L33.3397 92.5375L40.3677 98.1001L49.8615 104.646L55.7121 109.564L54.3147 117.296L52.8793 125.098L51.5549 132.932L61.3427 143.582L73.4121 150.535L86.1808 157.81Z" fill="#F2F2F2" stroke="#CDCDCD" stroke-width="2" stroke-linecap="round" stroke-linejoin="round" stroke-dasharray="10 10"/>
</svg>
