<svg width="297" height="236" viewBox="0 0 297 236" fill="none" xmlns="http://www.w3.org/2000/svg">
<path fill-rule="evenodd" clip-rule="evenodd" d="M155.816 234.275L145.991 233.427L136.424 232.749L127.114 230.646L124.906 224.846L122.736 219.114L120.564 213.45L114.345 214.841L108.605 217.215L103.306 215.96V212.467V209.041V205.717L88.624 200.155L74.3829 199.714L60.4 200.596L46.7301 199.138L37.9906 184.18L28.975 170.274L19.5553 158.743L13.7777 155.691L7.77998 152.57L1.94733 149.433L3.06966 147.279L4.21097 145.007L3.69581 125.301L5.38831 113.396L13.0055 103.052L12.1222 99.8975L11.8652 97.4218L12.1222 93.5891L18.7461 89.1465L22.3891 86.0258L26.0312 81.6172L33.7964 72.018L44.7985 69.7122L57.3461 71.917L69.5625 75.9527L79.5724 79.0734L80.6387 75.8847L81.743 72.731L82.8473 69.6102L84.3557 71.0011L85.9012 72.391L87.4837 73.8839L87.4097 77.5805L87.0786 79.3444L86.1222 80.6333L90.8316 85.4828L95.689 90.3334L100.509 95.353L107.611 96.6419L118.466 97.2518L130.831 95.9969L142.532 91.5883L151.18 82.872L154.529 68.6263L152.835 67.8804L151.511 66.1165L149.524 61.8769L149.818 60.724L150.112 59.5371L150.481 58.3842L148.236 54.7206L146.101 51.0579L143.931 47.3952L144.667 46.2423L145.366 45.0884L146.138 43.9355L151.254 46.9203L156.92 48.2771L162.955 45.6314L163.102 43.9355L163.286 42.2397L163.507 40.6458L159.533 35.6603L155.595 30.7417L151.732 25.9261L151.585 16.9379L150.371 12.3593L147.096 8.73065L147.831 6.21988L148.641 3.71009L149.524 1.20032L163.139 5.57594L169.799 8.2217L175.062 11.4094L175.466 17.9898L177.085 23.1104L181.169 25.1462L182.164 22.2624L183.12 19.5837L184.279 16.8529L200.121 25.7561L216.017 32.1326L232.208 36.4402L248.657 39.3229L265.362 41.4257L271.802 46.0723L276.144 53.3987L280.302 64.5907L288.103 70.1192L293.328 78.9714L295.205 96.0989L290.531 101.186L285.858 106.342L281.222 111.566L266.43 110.48L252.189 109.089L238.353 104.612L229.006 94.0981L220.691 91.7243L211.859 101.322L215.722 115.465L219.623 129.744L223.523 144.024L223.376 151.96L223.192 159.93L223.118 168.002L215.833 180.144L202.991 190.963L187.94 200.054L173.81 207.142L163.911 211.89L161.667 220.302L159.385 227.559L155.816 234.275Z" fill="#F2F2F2" stroke="#CDCDCD" stroke-width="2" stroke-linecap="round" stroke-linejoin="round" stroke-dasharray="10 10"/>
</svg>
