<svg width="248" height="209" viewBox="0 0 248 209" fill="none" xmlns="http://www.w3.org/2000/svg">
<path fill-rule="evenodd" clip-rule="evenodd" d="M246.829 177.544L236.912 176.763L226.792 179.138L218.807 186.633L219.764 189.516L220.721 192.433L221.678 195.315L220.133 198.436L218.55 201.591L217.042 204.813L203.206 205.83L192.13 206.577L181.163 207.017L167.843 207.22L149.444 207.322H123.355L117.725 204.643L114.634 202.846L112.297 201.438L110.328 184.971L105.104 176.119L97.3025 170.591L93.1444 159.399L88.8021 152.072L82.3623 147.426L65.6566 145.323L49.2079 142.44L33.0173 138.133L17.1207 131.756L1.27924 122.853L7.14889 105.165L10.865 93.2946L14.8391 78.7789L10.6449 72.4704L7.44298 69.6217L3.24781 67.6198L13.4407 62.7023L25.032 60.5315L36.7333 53.2731L36.8813 50.0514L37.0284 46.8977L37.2485 43.777L49.0608 29.6332L60.4681 18.8822L73.9729 12.0989L74.6351 8.26631L74.7091 5.85823L74.4881 2.83969L77.4319 2.43263L80.3757 2.09345L83.3196 1.85608L93.9536 7.48618L105.398 13.6929L116.768 15.4736L120.669 17.3559L125.232 20.4084L128.506 25.8355L126.041 30.9221L124.127 35.9427L123.355 42.793L128.69 44.9299L134.688 48.9665L138.331 57.5127L144.513 60.2945L150.696 63.1092L156.878 66.026L166.923 74.8102L178.956 76.574L190.988 84.9513L190.437 89.2249L189.922 93.4985L189.48 97.7042L194.3 99.095L199.195 100.485L204.015 101.978L201.917 107.54L198.532 109.812L195.073 109.711L200.483 131.112L211.706 144.034L224.806 151.631L234.153 163.773L240.187 171.405L246.829 177.544Z" fill="#F2F2F2" stroke="#CDCDCD" stroke-width="2" stroke-linecap="round" stroke-linejoin="round" stroke-dasharray="10 10"/>
</svg>
