<svg width="302" height="197" viewBox="0 0 302 197" fill="none" xmlns="http://www.w3.org/2000/svg">
<path fill-rule="evenodd" clip-rule="evenodd" d="M196.93 118.399L207.601 123.08L218.015 129.151L229.533 132.102L232.918 128.642L236.377 125.216L239.836 121.859L250.655 123.215H261.988L271.997 115.889L272.365 105.511L272.696 100.39L273.358 96.1839L282.779 90.1465L291.462 83.2281L299.963 73.1879L300.074 70.8481L300.221 68.5754L300.368 66.4045L295.4 62.3689L290.396 58.3332L285.465 54.4326L285.28 51.5159L285.133 48.6331L285.023 45.7164L281.896 44.5625L278.731 43.4096L275.677 42.2567L274.094 45.7164L272.549 49.2091L271.04 52.6688L266.514 52.2958L261.988 51.9909L258.922 51.8968L254.592 56.2645L250.618 56.7044L246.901 55.9585L246.349 54.5006L245.834 53.1097L245.392 51.7188L236.782 51.7868L232.918 52.2278L230.489 53.4827L220.775 62.2669L206.608 60.1981L194.722 55.9585L189.092 43.9526L183.499 32.0136L177.906 20.0407L172.902 19.0917L167.897 18.2778L162.966 17.4969L162.009 12.8513L161.126 8.30571L160.28 3.7611L147.18 2.87919L134.153 2.03127L121.128 1.25134L121.238 4.91401L121.385 8.61168L121.569 12.2743L128.119 15.3941L135.074 17.5309L140.703 24.2463L138.165 29.6738L135.662 35.1683L133.233 40.7298L126.867 39.5429L122.489 40.1199L117.742 44.7665L112.811 45.3424L107.88 45.9194L102.95 46.4963L100.043 49.989L97.172 53.9917L94.5232 56.7724L79.2149 52.8727L67.8076 49.345L50.4027 43.0366C49.7885 45.9014 49.1733 48.7651 48.5612 51.6299C48.009 54.8156 47.4578 58.0023 46.9057 61.188C46.3045 63.4358 45.7043 65.6836 45.1042 67.9314C42.1473 70.2712 39.1915 72.612 36.2356 74.9518C33.2918 75.3027 30.348 75.6527 27.4041 76.0037C24.4853 75.8677 21.5655 75.7317 18.6466 75.5967C15.8128 76.5006 12.98 77.4056 10.1462 78.3095C7.39844 81.7462 4.65166 85.1839 1.90387 88.6206C1.91588 90.0715 1.92988 91.5223 1.93989 92.9742C1.84186 94.5911 1.74283 96.2069 1.6458 97.8238C1.6588 99.3006 1.67081 100.778 1.66481 102.085L21.2594 106.528L33.7699 108.869L47.974 110.87L58.2039 121.689L69.059 130.575L80.1351 140.648L80.7603 142.955L81.3865 145.295L82.0487 147.601L81.3865 149.772L80.7603 152.044L80.1351 154.385L90.7692 163.644L104.274 167.951L117.338 170.8L118.699 173.581L119.545 176.905L120.613 183.553L125.102 187.352L130.326 190.574L140.887 196L148.689 195.322L155.938 193.219L162.93 189.929L169.406 189.014L176.913 188.81L183.794 194.101L190.859 189.387L194.391 177.753L194.207 163.033L192.294 160.727L190.454 158.42L188.651 156.081L188.43 153.028L188.32 149.907L188.172 146.821L190.343 143.023L192.514 139.292L194.723 135.594L192.367 132.475L191.337 130.473L190.969 127.896L192.956 124.639L194.943 121.486L196.93 118.399Z" fill="#F2F2F2" stroke="#CDCDCD" stroke-width="2" stroke-linecap="round" stroke-linejoin="round" stroke-dasharray="10 10"/>
</svg>
