<svg width="146" height="186" viewBox="0 0 146 186" fill="none" xmlns="http://www.w3.org/2000/svg">
<path fill-rule="evenodd" clip-rule="evenodd" d="M114.462 165.5V168.248V171.131V174.014L106.956 177.71L99.2651 173.776L92.053 168.994L86.2764 178.762L80.4988 183.103L72.9916 184.257L71.3732 181.916L70.0118 179.644L68.8334 177.473L70.895 158.107L69.3126 150.544L60.8122 144.031L42.8918 138.3L29.7182 134.128L20.6845 130.295L22.0644 127.989L23.4259 125.14L24.5298 121.816L19.2678 108.249L13.0122 99.7702L5.83671 92.6138L10.0684 82.7437L11.5035 74.4004L11.9083 62.8354L8.33902 56.12L4.7696 49.5396L1.20029 42.9602L5.17442 33.396L10.5468 25.5267L16.4344 20.7452L21.8437 20.6432L25.7442 26.6797L27.3264 40.4504L34.5388 44.3511L42.0086 47.1318L50.2144 49.1327L54.7405 29.2914L58.4575 11.926L68.3193 1.95483L75.8994 10.2311L85.0621 17.3195L94.3717 25.1538L95.439 24.5768L96.4693 24.0009L97.6466 23.4239L97.7567 21.2871L97.8307 19.2183L98.0508 17.2175L101.326 18.7434L104.896 20.2362L107.932 19.5153L108.171 21.6261L108.649 23.153L109.311 24.1699L110.93 28.6135L111.519 31.4962L111.63 35.3969L120.681 49.5056L129.734 52.5243L143.276 50.8965L143.57 52.7963L143.864 54.7292L144.195 56.696L139.301 70.4998L135.179 83.8976L132.272 97.4304L130.985 111.641L131.904 126.972L135.363 144.031L135.99 151.358V154.952L135.363 157.767L126.532 157.666L121.086 157.021L114.462 155.257L113.506 156.852L112.549 158.548L111.63 160.277L112.549 162.041L113.506 163.736L114.462 165.5Z" fill="#F2F2F2" stroke="#CDCDCD" stroke-width="2" stroke-linecap="round" stroke-linejoin="round" stroke-dasharray="10 10"/>
</svg>
