<svg width="137" height="110" viewBox="0 0 137 110" fill="none" xmlns="http://www.w3.org/2000/svg">
<path fill-rule="evenodd" clip-rule="evenodd" d="M107.065 108.202L113.229 100.807L119.337 92.6001L129.493 78.4224L128.831 77.2695L128.242 76.1506L127.691 75.1327L127.764 72.9959L127.911 70.9611L128.132 68.9602L130.451 66.4505L132.768 63.9067L135.087 61.3969L135.16 58.2082L135.271 55.0545L135.73 52.1377L126.992 37.1801L117.976 23.2743L108.555 11.7433L102.779 8.6906L96.78 5.56987L90.9153 2.55516L79.6331 7.87667L68.704 4.92595L58.217 2.28016L51.5932 5.94286L45.5584 5.19692L39.6527 1.99219L26.461 8.75858L17.1873 19.7476L7.5466 37.4181L5.48601 38.7069L3.31541 40.6398L1.43887 42.1406L6.0752 45.5243L9.2391 51.5608L10.6745 60.413L8.982 62.6178L7.28954 64.8906L5.63306 67.1964L14.1335 75.7777L23.3331 80.3222L32.9368 82.459L42.6516 83.9169L52.3294 86.4947L61.639 91.8202L70.2865 101.587L82.613 103.792L94.8675 106.065L107.065 108.202Z" fill="#F2F2F2" stroke="#CDCDCD" stroke-width="2" stroke-linecap="round" stroke-linejoin="round" stroke-dasharray="10 10"/>
</svg>
