<svg width="150" height="84" fill="none" xmlns="http://www.w3.org/2000/svg"><path d="M149.477 1.183a2.42 2.42 0 00-3.399-.394l-97.524 77.31L4.116 34.825A2.423 2.423 0 00.73 38.29l45.969 44.759a2.42 2.42 0 003.189.164l99.196-78.63a2.42 2.42 0 00.394-3.4zm-3.428 12.937h.007L67.887 78.077l-1.127-1.096a2.42 2.42 0 10-3.368 3.465l2.661 2.603a2.42 2.42 0 003.218.14l79.841-65.323a2.42 2.42 0 00-3.063-3.746z" fill="#118BDD"/><path d="M51.462 68.835a2.42 2.42 0 103.373-3.467L23.472 34.825a2.423 2.423 0 00-3.387 3.465l31.377 30.545z" fill="#118BDD"/></svg>