<svg width="28" height="30" viewBox="0 0 28 30" fill="none" xmlns="http://www.w3.org/2000/svg">
<path d="M17.8196 9.74382L15.5416 9.41253L14.523 7.34851C14.4243 7.14853 14.2207 7.02191 13.9976 7.02185C13.7746 7.02185 13.5709 7.14847 13.4721 7.34839L12.453 9.41253L10.1749 9.74382C9.95418 9.77593 9.77084 9.93056 9.70199 10.1427C9.63314 10.3548 9.69062 10.5876 9.85029 10.7433L11.4988 12.3499L11.1096 14.6185C11.0719 14.8383 11.1623 15.0605 11.3428 15.1916C11.5233 15.3228 11.7625 15.34 11.9598 15.2362L13.9974 14.1649L16.0346 15.2362C16.2335 15.3408 16.4727 15.3216 16.6517 15.1916C16.8321 15.0606 16.9225 14.8384 16.8848 14.6185L16.4956 12.3499L18.1442 10.7433C18.3039 10.5876 18.3614 10.3547 18.2925 10.1426C18.2236 9.9305 18.0403 9.77593 17.8196 9.74382ZM15.4571 11.7257C15.319 11.8603 15.256 12.0543 15.2885 12.2444L15.529 13.6463L14.2703 12.9844C14.0996 12.8946 13.8955 12.8946 13.7249 12.9844L12.4654 13.6465L12.7059 12.2444C12.7385 12.0543 12.6754 11.8603 12.5373 11.7257L11.5184 10.7326L12.9264 10.5279C13.1172 10.5001 13.2821 10.3803 13.3674 10.2074L13.9974 8.93154L14.6269 10.2073C14.7123 10.3802 14.8772 10.5001 15.068 10.5279L16.4759 10.7326L15.4571 11.7257Z" fill="#118BDD"/>
<path d="M0.642842 25.0169C1.57548 25.2034 3.4728 25.5829 4.40297 25.7689C4.58889 26.6987 4.96881 28.5984 5.1549 29.529C5.19779 29.7435 5.3567 29.9163 5.56699 29.977C5.77588 30.0373 6.00287 29.977 6.15439 29.8174L13.3786 22.2064C13.558 22.2452 13.7491 22.2656 13.9513 22.2656C14.1561 22.2656 14.3459 22.2449 14.5247 22.2045L21.8481 29.8202C21.9971 29.975 22.2223 30.0386 22.4348 29.9764C22.6442 29.9153 22.8022 29.7429 22.845 29.529C23.0314 28.5973 23.4109 26.6991 23.597 25.7689C24.5268 25.5829 26.4245 25.2034 27.3571 25.0169C27.5666 24.975 27.7367 24.8224 27.8009 24.6186C27.8652 24.4148 27.8135 24.1923 27.6659 24.0377L21.7874 17.881C21.867 17.8565 21.9492 17.837 22.0344 17.8236C22.707 17.7181 23.2166 17.3502 23.5924 16.6992C23.9528 16.075 24.0178 15.4408 23.7855 14.8143C23.5186 14.0952 23.7146 13.356 24.2968 12.8854C24.8267 12.4577 25.0842 11.8844 25.0842 11.1328C25.0842 10.4115 24.8231 9.82967 24.3084 9.40363C23.7182 8.91467 23.5187 8.17651 23.7876 7.47731C24.0321 6.84251 23.9682 6.21743 23.5924 5.56639C23.2315 4.94126 22.7145 4.56784 22.0565 4.45675C21.3005 4.32814 20.7585 3.78872 20.642 3.04833C20.5356 2.3765 20.1679 1.8672 19.5174 1.49097C18.892 1.13056 18.2576 1.06594 17.6324 1.29867C16.9136 1.56515 16.1746 1.36898 15.7036 0.786327C15.2755 0.257226 14.7024 0 13.9513 0C13.2304 0 12.6487 0.260742 12.2222 0.775194C11.7329 1.36582 10.9946 1.56545 10.2956 1.29644C9.66005 1.05211 9.03515 1.1158 8.38488 1.49121C7.75986 1.85214 7.38644 2.36935 7.27523 3.02771C7.14674 3.78333 6.60715 4.32526 5.86775 4.44204C5.19592 4.54745 4.68633 4.91513 4.30975 5.56639C3.94934 6.19065 3.8843 6.82481 4.11668 7.45135C4.38358 8.17041 4.18752 8.90963 3.60487 9.38061C3.07577 9.80869 2.81854 10.3819 2.81854 11.1328C2.81854 11.8544 3.07946 12.4362 3.59373 12.8619C4.18418 13.3511 4.38393 14.0893 4.11504 14.7883C3.87047 15.4235 3.93416 16.0486 4.30975 16.6992C4.67057 17.3241 5.18748 17.6976 5.84566 17.8088C5.94141 17.8251 6.03428 17.8493 6.12434 17.8792L0.330948 24.041C0.185167 24.1961 0.134894 24.418 0.199699 24.6208C0.264503 24.8235 0.43419 24.9751 0.642842 25.0169ZM5.52832 25.4201L5.47553 25.156C5.42918 24.924 5.24783 24.7426 5.0158 24.6962L4.65768 24.6246L8.26974 20.7039C8.67005 20.9593 9.10722 21.1128 9.57445 21.1028L5.52832 25.4201ZM6.08238 28.1911L5.81074 26.8325L11.3567 20.9149C11.6825 21.0086 11.9752 21.2031 12.1991 21.4799C12.2384 21.5283 12.2796 21.5738 12.3217 21.6178L6.08238 28.1911ZM21.9158 28.1998L15.5761 21.6072C15.6118 21.5695 15.6469 21.531 15.6806 21.4903C15.9156 21.2065 16.2171 21.008 16.5488 20.9141L22.1887 26.8354L21.9158 28.1998ZM22.9841 24.6963C22.7521 24.7427 22.5707 24.924 22.5244 25.1561L22.4694 25.4311L18.3569 21.1134C18.7397 21.1136 19.1238 21.0015 19.5172 20.7747C19.5584 20.7509 19.5981 20.7263 19.6371 20.7011L23.3298 24.6272L22.9841 24.6963ZM26.0829 24.0767L24.6839 24.3564L20.4337 19.8375C20.5256 19.6527 20.591 19.4526 20.6275 19.2376C20.6668 19.0059 20.7461 18.7938 20.8593 18.6059L26.0829 24.0767ZM6.04166 16.6535C5.81965 16.6159 5.56084 16.5224 5.32465 16.1132C5.07938 15.6884 5.12842 15.4179 5.20875 15.2091C5.65729 14.0431 5.31686 12.7676 4.34116 11.9593C4.16772 11.8158 3.99041 11.6053 3.99041 11.1328C3.99041 10.6422 4.16813 10.4322 4.34174 10.2918C5.31334 9.50641 5.65623 8.23141 5.21537 7.04372C5.13697 6.83231 5.08863 6.56102 5.32441 6.15268C5.57051 5.72706 5.82896 5.63431 6.04992 5.59968C7.28379 5.40479 8.21818 4.47239 8.43064 3.22359C8.4682 3.0014 8.56171 2.74236 8.97081 2.50611C9.39544 2.26095 9.6662 2.31 9.87491 2.39021C11.0407 2.83904 12.3163 2.49855 13.1245 1.52302C13.2685 1.34935 13.4793 1.17187 13.9513 1.17187C14.4419 1.17187 14.6518 1.34959 14.7924 1.52326C15.5777 2.49474 16.8524 2.83775 18.0405 2.39718C18.2515 2.31861 18.5226 2.27021 18.9314 2.50582C19.3565 2.75162 19.4496 3.01072 19.4844 3.23109C19.6786 4.46501 20.6111 5.39958 21.8607 5.6121C22.0825 5.6496 22.3412 5.74305 22.5775 6.15227C22.823 6.57766 22.7741 6.84795 22.6939 7.05637C22.2453 8.22262 22.5855 9.49815 23.5609 10.3062C23.7347 10.45 23.9123 10.6606 23.9123 11.1327C23.9123 11.6235 23.7345 11.8331 23.5603 11.9737C22.5887 12.7591 22.2458 14.0341 22.6867 15.2218C22.7651 15.4332 22.8134 15.7045 22.5774 16.1132C22.332 16.5385 22.0733 16.6312 21.8522 16.6659C20.6129 16.8616 19.6828 17.7994 19.4721 19.0415C19.4155 19.3754 19.2338 19.5855 18.9321 19.7593C18.5066 20.0046 18.2358 19.9555 18.0275 19.8754C17.5917 19.7075 17.1416 19.6474 16.6909 19.6966C15.9503 19.7759 15.271 20.1475 14.778 20.7429C14.5608 21.0053 14.3 21.0936 13.9514 21.0936C13.5196 21.0936 13.2888 20.9628 13.1097 20.7421C12.5559 20.0575 11.7521 19.6787 10.8983 19.6787C10.5503 19.6787 10.2031 19.7421 9.86173 19.8683C9.65068 19.9469 9.3798 19.9953 8.97105 19.7595C8.59083 19.5399 8.46152 19.3086 8.41828 19.0338C8.22615 17.8217 7.31015 16.8692 6.04166 16.6535ZM7.04467 18.6111C7.15189 18.7927 7.22566 18.9961 7.26058 19.2166C7.29638 19.4439 7.36535 19.6547 7.46437 19.8485L3.31213 24.3556L1.90759 24.0747L7.04467 18.6111Z" fill="#118BDD"/>
<path d="M18.9805 16.6406C19.3041 16.6406 19.5664 16.3783 19.5664 16.0547C19.5664 15.7311 19.3041 15.4688 18.9805 15.4688C18.6569 15.4688 18.3945 15.7311 18.3945 16.0547C18.3945 16.3783 18.6569 16.6406 18.9805 16.6406Z" fill="#118BDD"/>
<path d="M14 18.75C15.0644 18.75 16.0944 18.5345 17.0616 18.1095C17.3579 17.9793 17.4925 17.6336 17.3623 17.3374C17.2321 17.0411 16.8864 16.9065 16.5901 17.0367C15.7725 17.396 14.9011 17.5781 14 17.5781C10.4461 17.5781 7.55469 14.6868 7.55469 11.1328C7.55469 7.57887 10.4461 4.6875 14 4.6875C17.5539 4.6875 20.4453 7.57887 20.4453 11.1328C20.4453 12.0076 20.2733 12.8554 19.9341 13.6529C19.8074 13.9507 19.9462 14.2948 20.2439 14.4214C20.5416 14.5481 20.8858 14.4093 21.0124 14.1116C21.4137 13.1682 21.6172 12.1661 21.6172 11.1328C21.6172 6.9327 18.2002 3.51562 14 3.51562C9.79982 3.51562 6.38281 6.9327 6.38281 11.1328C6.38281 15.3329 9.79988 18.75 14 18.75Z" fill="#118BDD"/>
</svg>
