<svg width="30" height="30" viewBox="0 0 30 30" fill="none" xmlns="http://www.w3.org/2000/svg">
<path d="M12.657 20.2734C12.9806 20.2734 13.2429 20.0111 13.2429 19.6875C13.2429 19.3639 12.9806 19.1016 12.657 19.1016C12.3334 19.1016 12.071 19.3639 12.071 19.6875C12.071 20.0111 12.3334 20.2734 12.657 20.2734Z" fill="#118BDD"/>
<path d="M2.34448 7.96875V10.3125C2.34448 10.6361 2.60681 10.8984 2.93042 10.8984H19.864C20.1876 10.8984 20.45 10.6361 20.45 10.3125V7.96875C20.45 7.64514 20.1876 7.38281 19.864 7.38281H2.93042C2.60681 7.38281 2.34448 7.64514 2.34448 7.96875ZM8.55542 8.55469H19.2781V9.72656H8.55542V8.55469ZM3.51636 8.55469H7.38354V9.72656H3.51636V8.55469Z" fill="#118BDD"/>
<path d="M2.93042 13.2422H19.864C20.1876 13.2422 20.45 12.9799 20.45 12.6562C20.45 12.3326 20.1876 12.0703 19.864 12.0703H2.93042C2.60681 12.0703 2.34448 12.3326 2.34448 12.6562C2.34448 12.9799 2.60681 13.2422 2.93042 13.2422Z" fill="#118BDD"/>
<path d="M2.93042 15.5859H19.864C20.1876 15.5859 20.45 15.3236 20.45 15C20.45 14.6764 20.1876 14.4141 19.864 14.4141H2.93042C2.60681 14.4141 2.34448 14.6764 2.34448 15C2.34448 15.3236 2.60681 15.5859 2.93042 15.5859Z" fill="#118BDD"/>
<path d="M2.93042 17.9297H12.657C12.9806 17.9297 13.2429 17.6674 13.2429 17.3438C13.2429 17.0201 12.9806 16.7578 12.657 16.7578H2.93042C2.60681 16.7578 2.34448 17.0201 2.34448 17.3438C2.34448 17.6674 2.60681 17.9297 2.93042 17.9297Z" fill="#118BDD"/>
<path d="M2.93042 20.2734H10.3132C10.6368 20.2734 10.8992 20.0111 10.8992 19.6875C10.8992 19.3639 10.6368 19.1016 10.3132 19.1016H2.93042C2.60681 19.1016 2.34448 19.3639 2.34448 19.6875C2.34448 20.0111 2.60681 20.2734 2.93042 20.2734Z" fill="#118BDD"/>
<path d="M7.96948 24.9609H10.9581C11.2303 26.2966 12.414 27.3047 13.8289 27.3047C15.4443 27.3047 16.7585 25.9904 16.7585 24.375C16.7585 22.7596 15.4443 21.4453 13.8289 21.4453C12.4141 21.4453 11.2303 22.4534 10.9581 23.7891H7.96948C7.64587 23.7891 7.38354 24.0514 7.38354 24.375C7.38354 24.6986 7.64587 24.9609 7.96948 24.9609ZM13.8289 23.7891H12.1718C12.4137 23.1071 13.065 22.6172 13.8289 22.6172C14.7981 22.6172 15.5867 23.4057 15.5867 24.375C15.5867 25.3443 14.7981 26.1328 13.8289 26.1328C13.065 26.1328 12.4137 25.6429 12.1718 24.9609H13.8289C14.1524 24.9609 14.4148 24.6986 14.4148 24.375C14.4148 24.0514 14.1525 23.7891 13.8289 23.7891Z" fill="#118BDD"/>
<path d="M19.864 4.6875C20.1876 4.6875 20.45 4.42518 20.45 4.10156C20.45 3.77795 20.1876 3.51562 19.864 3.51562H18.6921C18.3686 3.51562 18.1062 3.77795 18.1062 4.10156C18.1062 4.42518 18.3686 4.6875 18.6921 4.6875H19.864Z" fill="#118BDD"/>
<path d="M16.3484 4.6875C16.6719 4.6875 16.9343 4.42518 16.9343 4.10156C16.9343 3.77795 16.6719 3.51562 16.3484 3.51562H15.1765C14.853 3.51562 14.5906 3.77795 14.5906 4.10156C14.5906 4.42518 14.853 4.6875 15.1765 4.6875H16.3484Z" fill="#118BDD"/>
<path d="M12.8328 4.6875C13.1564 4.6875 13.4187 4.42518 13.4187 4.10156C13.4187 3.77795 13.1564 3.51562 12.8328 3.51562H11.6609C11.3373 3.51562 11.075 3.77795 11.075 4.10156C11.075 4.42518 11.3373 4.6875 11.6609 4.6875H12.8328Z" fill="#118BDD"/>
<path d="M11.4851 30C11.8087 30 12.071 29.7377 12.071 29.4141C12.071 29.0905 11.8087 28.8281 11.4851 28.8281C11.1615 28.8281 10.8992 29.0905 10.8992 29.4141C10.8992 29.7377 11.1615 30 11.4851 30Z" fill="#118BDD"/>
<path d="M0.58667 30H8.84839C9.172 30 9.43433 29.7377 9.43433 29.4141C9.43433 29.0904 9.172 28.8281 8.84839 28.8281H1.17261V5.85938H5.27417C5.59778 5.85938 5.86011 5.59705 5.86011 5.27344V1.17188H21.6218V17.7335C21.356 18.048 21.1078 18.3241 20.8931 18.5444L19.6509 17.3022C18.5063 16.1568 16.6525 16.1563 15.5075 17.3021L14.6789 18.1306C14.4501 18.3594 14.4501 18.7304 14.6789 18.9592L21.6218 25.9021V28.8281H14.1218C13.7982 28.8281 13.5358 29.0904 13.5358 29.4141C13.5358 29.7377 13.7982 30 14.1218 30H22.2077C22.5313 30 22.7936 29.7377 22.7936 29.4141V27.0739L22.9653 27.2456C23.1941 27.4742 23.5651 27.4744 23.794 27.2456L24.6225 26.4171C25.7673 25.2722 25.7675 23.4188 24.6225 22.2738L23.3805 21.0317C24.4919 19.9487 26.9367 18.1498 28.2213 17.5904C30.0243 16.8055 30.675 14.354 29.1366 12.8156C27.6098 11.2881 25.1692 11.9088 24.3696 13.717C24.0698 14.3947 23.4485 15.3475 22.7937 16.2404V0.585938C22.7937 0.262324 22.5313 0 22.2078 0H5.27417C5.11438 0 4.96421 0.0673828 4.85985 0.171621L0.172354 4.85912C0.0663574 4.96488 0.000732422 5.11441 0.000732422 5.27344V29.4141C0.000732422 29.7377 0.263057 30 0.58667 30ZM23.7938 23.1024C24.4807 23.7892 24.4808 24.9014 23.7938 25.5884L23.3796 26.0026L15.9219 18.5449L16.3363 18.1306C17.0231 17.4434 18.1349 17.4431 18.8222 18.1307L23.7938 23.1024ZM22.667 18.3107C23.6825 17.0861 24.9341 15.3373 25.4413 14.1911C25.8968 13.1612 27.3442 12.6801 28.3079 13.6442C29.272 14.6083 28.7822 16.0682 27.7535 16.5159C26.2955 17.151 23.7579 19.0238 22.5518 20.203L21.7218 19.373C21.9996 19.0888 22.3241 18.7244 22.667 18.3107ZM4.68823 2.00051V4.6875H2.00124L4.68823 2.00051Z" fill="#118BDD"/>
</svg>
