<svg width="22" height="30" viewBox="0 0 22 30" fill="none" xmlns="http://www.w3.org/2000/svg">
<path d="M21.0313 9.98333C20.4664 -3.32249 1.55164 -3.32801 0.969251 9.96818C0.965435 12.363 1.81941 14.6828 3.37395 16.5003C3.80012 16.9981 4.17943 17.5332 4.5065 18.0968C2.56342 19.3067 3.54896 22.1734 5.84946 21.9774C5.99036 22.8381 5.94709 24.1418 5.95255 25.0224C5.95255 26.481 7.02204 27.694 8.41795 27.9197C9.055 30.6943 12.9467 30.6924 13.5827 27.9197C14.9786 27.694 16.0481 26.481 16.0481 25.0224C16.0536 24.1385 16.0095 22.841 16.1527 21.9774C18.4486 22.1722 19.4341 19.3149 17.5022 18.1015C17.8354 17.5261 18.222 16.9777 18.6561 16.4652C20.1878 14.6586 21.0313 12.3566 21.0313 9.98333ZM11.0002 28.8369C10.4005 28.8369 9.88414 28.4748 9.65729 27.9578H12.3431C12.1164 28.4748 11.6 28.8369 11.0002 28.8369ZM13.1126 26.7837H8.88798C7.89656 26.7855 7.09695 25.9575 7.12672 24.9676H14.8739C14.9037 25.9575 14.1041 26.7854 13.1126 26.7837ZM16.4464 20.8032C16.1051 20.8036 15.3953 20.8029 15.0588 20.8032C14.3337 20.8245 14.2607 21.8419 14.9695 21.9698C14.8892 22.5703 14.8671 23.1875 14.8739 23.7934H7.12672C7.13335 23.1899 7.11192 22.5772 7.03326 21.9773H9.775C10.0992 21.9773 10.3621 21.7145 10.3621 21.3902C10.3621 21.066 10.0992 20.8031 9.775 20.8031H5.55415C5.05349 20.8031 4.64611 20.3958 4.64611 19.8951C4.64611 19.3944 5.05343 18.987 5.55415 18.987C8.72494 18.9873 13.276 18.9869 16.4463 18.987C17.6477 19.0354 17.6538 20.7522 16.4464 20.8032ZM11.7705 13.0756C11.3037 12.8401 10.6927 12.8423 10.2305 13.0762L8.0259 10.0284H9.24551C9.446 10.0284 9.63263 9.92603 9.74048 9.75701L10.1894 9.05327L11.1767 11.3076C11.3552 11.734 11.9705 11.781 12.2112 11.385L13.0659 10.0283H13.9745L11.7705 13.0756ZM10.4132 14.6599C10.411 14.1138 11.1102 13.8637 11.4539 14.2875C11.4543 14.288 11.4546 14.2884 11.4549 14.2888C11.5407 14.3934 11.5873 14.5231 11.5873 14.66V17.8131H10.4132V14.6599ZM16.3181 17.813H12.7616V14.6599C12.7616 14.4033 12.7066 14.155 12.6029 13.9282L15.4238 10.0283H16.682C17.4608 9.99736 17.4605 8.88495 16.682 8.85413H16.2732L16.7792 8.15456C17.2105 7.50554 16.3091 6.85364 15.8278 7.46638L14.824 8.85413H12.742C12.5403 8.85413 12.3528 8.95763 12.2453 9.1283L11.8082 9.82223L10.8238 7.57481C10.6459 7.14959 10.0324 7.10133 9.79109 7.49461L8.92379 8.85419H7.17662L6.17282 7.46643C5.69141 6.85364 4.79012 7.50565 5.22145 8.15462L5.72746 8.85419H5.31861C4.53984 8.88507 4.54008 9.99754 5.31861 10.0284H6.5768L9.39845 13.9292C9.29641 14.152 9.23905 14.3993 9.23905 14.66V17.8131H5.69306C5.29355 17.075 4.81478 16.378 4.26609 15.737C-0.627327 10.0587 3.4963 1.10102 11.0004 1.12662C18.4868 1.10114 22.616 10.0208 17.7601 15.7063C17.2063 16.3602 16.7223 17.0676 16.3181 17.813Z" fill="#118BDD"/>
<path d="M12.9602 21.6142C13.085 21.3149 12.9436 20.9711 12.6443 20.8462C12.3451 20.7214 12.0013 20.8628 11.8764 21.1621C11.7516 21.4614 11.893 21.8052 12.1923 21.93C12.4915 22.0548 12.8353 21.9134 12.9602 21.6142Z" fill="#118BDD"/>
</svg>
