<svg width="30" height="30" viewBox="0 0 30 30" fill="none" xmlns="http://www.w3.org/2000/svg">
<g clip-path="url(#clip0)">
<path d="M21.5625 15H17.8125C17.2947 15 16.875 15.4197 16.875 15.9375V23.4375C16.875 23.9553 17.2947 24.375 17.8125 24.375H21.5625C22.598 24.375 23.4375 23.5355 23.4375 22.5V16.875C23.4375 15.8395 22.598 15 21.5625 15ZM21.5625 22.5H18.75V16.875H21.5625V22.5Z" fill="#ADADAD"/>
<path d="M30 16.875V15H25.3125C24.7947 15 24.375 15.4197 24.375 15.9375V24.375H26.25V20.625H30V18.75H26.25V16.875H30Z" fill="#ADADAD"/>
<path d="M1.875 27.1873V2.81227C1.875 2.29448 2.29471 1.87477 2.8125 1.87477H16.875V5.62477C16.875 6.6603 17.7145 7.49977 18.75 7.49977H22.5V10.3123H24.375V6.56227C24.3765 6.31307 24.2786 6.07354 24.1031 5.89665L18.4781 0.271646C18.3012 0.0961575 18.0617 -0.00163543 17.8125 -0.000229182H2.8125C1.25918 -0.000229182 0 1.25901 0 2.81227V27.1873C0 28.7406 1.25918 29.9998 2.8125 29.9998H9.375V28.1248H2.8125C2.29477 28.1248 1.875 27.7051 1.875 27.1873Z" fill="#ADADAD"/>
<path d="M14.0625 15H10.3125C9.79471 15 9.375 15.4197 9.375 15.9375V24.375H11.25V21.5625H14.0625C15.098 21.5625 15.9375 20.723 15.9375 19.6875V16.875C15.9375 15.8395 15.098 15 14.0625 15ZM14.0625 19.6875H11.25V16.875H14.0625V19.6875Z" fill="#ADADAD"/>
</g>
<defs>
<clipPath id="clip0">
<rect width="30" height="30" fill="white"/>
</clipPath>
</defs>
</svg>
