<svg width="150" height="84" viewBox="0 0 150 84" fill="none" xmlns="http://www.w3.org/2000/svg">
<path d="M149.477 1.18308C148.647 0.135471 147.125 -0.0411463 146.078 0.788713L48.5536 78.0987L4.11629 34.825C3.15972 33.8896 1.62581 33.9072 0.690406 34.8637C-0.244999 35.8206 -0.227761 37.3542 0.729117 38.2896L46.698 83.0488C47.5686 83.8968 48.9335 83.9673 49.8867 83.2133L149.083 4.58235C150.13 3.7528 150.307 2.23068 149.477 1.18308Z" fill="#118BDD"/>
<path d="M146.049 14.12H146.056L67.8873 78.0772L66.7599 76.9812C65.8535 75.9992 64.3229 75.9381 63.3409 76.8445C62.3589 77.7509 62.2979 79.2814 63.2042 80.2634C63.2635 80.3275 63.3261 80.3886 63.392 80.4461L66.0534 83.0494C66.9344 83.9071 68.3189 83.9675 69.2712 83.1897L149.112 17.8656C150.133 17.0039 150.263 15.4776 149.401 14.4563C148.558 13.4568 147.073 13.308 146.049 14.12Z" fill="#118BDD"/>
<path d="M51.462 68.8347C52.3925 69.7934 53.9243 69.8161 54.8833 68.8856C55.842 67.955 55.8647 66.4232 54.9341 65.4645C54.9021 65.4312 54.8688 65.3992 54.8349 65.3677L23.4718 34.8251C22.5152 33.8897 20.9813 33.9072 20.0459 34.8638C19.1105 35.8203 19.1277 37.3543 20.0846 38.2897L51.462 68.8347Z" fill="#118BDD"/>
</svg>
